<svg width="133" height="41" viewBox="0 0 133 41" fill="none" xmlns="http://www.w3.org/2000/svg">
<g clip-path="url(#clip0_3_2696)">
<path d="M37.8802 30.4824C37.2488 30.4824 36.7586 30.3187 36.4112 29.9903C36.0693 29.6574 35.8884 29.1581 35.8685 28.4924C35.863 28.2874 35.8606 28.0823 35.8613 27.8773C35.8613 27.6123 35.864 27.4096 35.8685 27.2694C35.8884 26.6182 36.0765 26.1234 36.4329 25.786C36.7902 25.4432 37.2723 25.2722 37.8802 25.2722C38.4835 25.2722 38.9638 25.4441 39.3202 25.786C39.6775 26.1234 39.8657 26.6182 39.8847 27.2694C39.8946 27.5498 39.8991 27.7516 39.8991 27.8773C39.8991 27.9976 39.8946 28.2029 39.8847 28.4924C39.8666 29.1581 39.6821 29.6574 39.3347 29.9903C38.9928 30.3187 38.508 30.4824 37.8802 30.4824ZM37.8802 29.8673C38.2619 29.8673 38.5658 29.7515 38.792 29.5199C39.019 29.2884 39.142 28.9338 39.161 28.4562C39.171 28.1667 39.1755 27.9741 39.1755 27.8773C39.1755 27.7715 39.171 27.5788 39.161 27.2984C39.1429 26.8208 39.0163 26.4662 38.7847 26.2346C38.5586 26.0031 38.2565 25.8873 37.8802 25.8873C37.5003 25.8873 37.1927 26.0031 36.9612 26.2346C36.735 26.4662 36.612 26.8208 36.5921 27.2984C36.5876 27.4386 36.5849 27.6313 36.5849 27.8773C36.5849 28.1188 36.5876 28.3115 36.5921 28.4562C36.612 28.9338 36.735 29.2884 36.9612 29.5199C37.1927 29.7515 37.4994 29.8673 37.8802 29.8673ZM41.0271 30.41C40.9822 30.4112 40.9384 30.3957 40.9041 30.3666C40.8746 30.3325 40.8589 30.2886 40.8598 30.2436V26.8208C40.8598 26.7728 40.8742 26.7312 40.9032 26.6978C40.9192 26.6812 40.9385 26.6682 40.9599 26.6595C40.9812 26.6508 41.0041 26.6466 41.0271 26.6471H41.3591C41.4079 26.6471 41.4495 26.6643 41.4821 26.6978C41.4985 26.7137 41.5115 26.7329 41.5202 26.754C41.5289 26.7752 41.5332 26.7979 41.5328 26.8208V27.1392C41.7318 26.8108 42.0682 26.6471 42.5458 26.6471H42.829C42.8507 26.6464 42.8723 26.6506 42.8922 26.6593C42.9121 26.6681 42.9297 26.6812 42.9438 26.6978C42.9605 26.712 42.9737 26.7298 42.9825 26.7498C42.9913 26.7699 42.9954 26.7917 42.9945 26.8135V27.1102C42.9954 27.1321 42.9913 27.1539 42.9825 27.1739C42.9737 27.194 42.9605 27.2118 42.9438 27.226C42.9286 27.2406 42.9106 27.252 42.8908 27.2595C42.8711 27.2669 42.8501 27.2703 42.829 27.2694H42.3948C42.1343 27.2694 41.9289 27.3463 41.7797 27.501C41.6295 27.6502 41.5554 27.8556 41.5554 28.1161V30.2436C41.5558 30.2665 41.5515 30.2892 41.5428 30.3103C41.5341 30.3315 41.5211 30.3506 41.5047 30.3666C41.4704 30.3957 41.4266 30.4112 41.3817 30.41H41.0271ZM46.2527 31.7849C46.2298 31.7853 46.2071 31.7811 46.1859 31.7723C46.1648 31.7636 46.1456 31.7507 46.1297 31.7343C46.1149 31.7189 46.1035 31.7008 46.096 31.6808C46.0886 31.6609 46.0852 31.6397 46.0862 31.6185V29.9397C45.8058 30.3015 45.4151 30.4824 44.9139 30.4824C44.4119 30.4824 44.0329 30.3232 43.7778 30.0048C43.5218 29.6819 43.3871 29.2721 43.3726 28.7746L43.3654 28.5286L43.3726 28.2825C43.3871 27.7805 43.5191 27.3707 43.7706 27.0523C44.0257 26.7339 44.4074 26.5747 44.9139 26.5747C45.435 26.5747 45.8303 26.7602 46.1007 27.1319V26.8135C46.1007 26.7656 46.1152 26.7267 46.1441 26.6978C46.1601 26.6814 46.1792 26.6684 46.2004 26.6597C46.2215 26.651 46.2443 26.6467 46.2671 26.6471H46.6C46.6219 26.6462 46.6437 26.6504 46.6637 26.6591C46.6838 26.6679 46.7016 26.6811 46.7158 26.6978C46.7324 26.712 46.7457 26.7298 46.7544 26.7498C46.7632 26.7699 46.7673 26.7917 46.7665 26.8135V31.6185C46.7673 31.6404 46.7632 31.6621 46.7544 31.6822C46.7457 31.7023 46.7324 31.7201 46.7158 31.7343C46.7016 31.7509 46.6838 31.7641 46.6637 31.7729C46.6437 31.7817 46.6219 31.7858 46.6 31.7849H46.2527ZM45.0659 29.8962C45.3888 29.8962 45.6376 29.7904 45.8113 29.5778C45.9849 29.3653 46.0763 29.1165 46.0862 28.8325C46.0908 28.7791 46.0935 28.685 46.0935 28.5503C46.0935 28.4146 46.0908 28.3241 46.0862 28.2753C46.0792 27.9923 45.983 27.7188 45.8113 27.4938C45.6466 27.2721 45.3988 27.1609 45.0659 27.1609C44.7231 27.1609 44.4725 27.2667 44.3133 27.4793C44.1586 27.6919 44.0745 27.9714 44.0601 28.3187L44.0528 28.5286C44.0528 29.4403 44.3902 29.8962 45.0659 29.8962ZM48.8921 30.4824C48.6642 30.4845 48.4388 30.435 48.2327 30.3376C48.041 30.25 47.8743 30.1156 47.7479 29.9469C47.6338 29.7836 47.5732 29.5889 47.5742 29.3897C47.5742 29.0713 47.7045 28.8108 47.965 28.6082C48.2309 28.4001 48.5873 28.2653 49.036 28.2029L50.1142 28.051V27.8411C50.1142 27.349 49.832 27.103 49.2675 27.103C49.0559 27.103 48.8822 27.1482 48.7465 27.2405C48.621 27.3174 48.5165 27.4243 48.4426 27.5517C48.4326 27.5879 48.4125 27.6205 48.3847 27.6457C48.3657 27.6647 48.3367 27.6747 48.2978 27.6747H47.9867C47.9441 27.675 47.9028 27.6595 47.8709 27.6313C47.8426 27.5993 47.8272 27.5581 47.8275 27.5155C47.8329 27.3997 47.8854 27.2694 47.9867 27.1247C48.0934 26.9755 48.2544 26.847 48.4715 26.7412C48.6886 26.6299 48.9564 26.5747 49.2748 26.5747C49.8157 26.5747 50.2037 26.7023 50.4398 26.9583C50.6768 27.2088 50.7944 27.5227 50.7944 27.899V30.2436C50.7948 30.2665 50.7905 30.2892 50.7818 30.3103C50.7731 30.3315 50.7601 30.3506 50.7437 30.3666C50.7284 30.3813 50.7102 30.3928 50.6903 30.4002C50.6704 30.4077 50.6492 30.411 50.628 30.41H50.2951C50.2501 30.4112 50.2063 30.3957 50.1721 30.3666C50.143 30.3323 50.1275 30.2885 50.1286 30.2436V29.9324C50.0228 30.0862 49.8681 30.2173 49.6655 30.3232C49.4629 30.429 49.2051 30.4824 48.8921 30.4824ZM49.0432 29.9397C49.3571 29.9397 49.6131 29.8383 49.8102 29.6357C50.0129 29.4277 50.1142 29.1319 50.1142 28.7457V28.543L49.2748 28.6661C48.9328 28.714 48.6741 28.7963 48.5005 28.9121C48.3268 29.0233 48.24 29.1654 48.24 29.339C48.24 29.5317 48.3196 29.6819 48.4788 29.7877C48.638 29.889 48.8261 29.9397 49.0432 29.9397ZM52.0083 30.41C51.9633 30.4112 51.9195 30.3957 51.8853 30.3666C51.8562 30.3323 51.8407 30.2885 51.8419 30.2436V25.4386C51.8419 25.3907 51.8563 25.3518 51.8853 25.3229C51.9012 25.3064 51.9204 25.2935 51.9415 25.2848C51.9627 25.2761 51.9854 25.2718 52.0083 25.2722H52.3484C52.3703 25.2713 52.3921 25.2754 52.4121 25.2842C52.4322 25.293 52.45 25.3062 52.4642 25.3229C52.4808 25.3371 52.494 25.3549 52.5028 25.3749C52.5116 25.395 52.5157 25.4168 52.5148 25.4386V30.2436C52.5153 30.2665 52.511 30.2892 52.5023 30.3103C52.4936 30.3315 52.4806 30.3506 52.4642 30.3666C52.4488 30.3813 52.4307 30.3928 52.4108 30.4002C52.3909 30.4077 52.3696 30.411 52.3484 30.41H52.0083ZM53.7034 25.9452C53.6585 25.9463 53.6147 25.9309 53.5804 25.9018C53.5513 25.8675 53.5358 25.8237 53.537 25.7787V25.388C53.537 25.34 53.5514 25.2984 53.5804 25.265C53.5963 25.2486 53.6155 25.2356 53.6367 25.2269C53.6578 25.2182 53.6805 25.2139 53.7034 25.2143H54.1593C54.2072 25.2143 54.2479 25.2315 54.2823 25.265C54.2987 25.2809 54.3117 25.3001 54.3204 25.3212C54.3291 25.3424 54.3334 25.3651 54.333 25.388V25.7787C54.3334 25.8016 54.3291 25.8243 54.3204 25.8455C54.3117 25.8667 54.2987 25.8858 54.2823 25.9018C54.2481 25.9309 54.2043 25.9463 54.1593 25.9452H53.7034ZM53.7613 30.41C53.7164 30.4112 53.6726 30.3957 53.6383 30.3666C53.6092 30.3323 53.5937 30.2885 53.5949 30.2436V26.8135C53.5949 26.7656 53.6093 26.7267 53.6383 26.6978C53.6542 26.6814 53.6734 26.6684 53.6945 26.6597C53.7157 26.651 53.7384 26.6467 53.7613 26.6471H54.1086C54.1305 26.6462 54.1523 26.6504 54.1724 26.6591C54.1924 26.6679 54.2102 26.6811 54.2244 26.6978C54.2411 26.712 54.2543 26.7298 54.2631 26.7498C54.2718 26.7699 54.2759 26.7917 54.2751 26.8135V30.2436C54.2755 30.2665 54.2712 30.2892 54.2625 30.3103C54.2538 30.3315 54.2408 30.3506 54.2244 30.3666C54.2091 30.3813 54.1909 30.3928 54.171 30.4002C54.1511 30.4077 54.1299 30.411 54.1086 30.41H53.7613ZM57.5812 31.7849C57.5622 31.785 57.5435 31.7812 57.526 31.7737C57.5086 31.7663 57.4929 31.7553 57.4799 31.7415C57.4661 31.7285 57.4551 31.7128 57.4477 31.6954C57.4402 31.6779 57.4364 31.6592 57.4365 31.6402C57.4365 31.6067 57.4491 31.5633 57.4727 31.5099L58.0299 30.1857L56.6477 26.9221C56.63 26.883 56.6178 26.8416 56.6115 26.7991C56.6109 26.7789 56.6144 26.7589 56.6218 26.7402C56.6292 26.7215 56.6404 26.7045 56.6546 26.6902C56.6689 26.676 56.6859 26.6648 56.7046 26.6574C56.7233 26.65 56.7434 26.6465 56.7635 26.6471H57.1181C57.1959 26.6471 57.2538 26.6878 57.2917 26.7701L58.3917 29.4042L59.5205 26.7701C59.5594 26.6887 59.62 26.6471 59.7015 26.6471H60.0416C60.085 26.6471 60.1212 26.6616 60.1501 26.6905C60.1791 26.7195 60.1935 26.7538 60.1935 26.7918C60.1857 26.8363 60.1736 26.88 60.1573 26.9221L58.1022 31.6619C58.0642 31.7433 58.0036 31.7849 57.9213 31.7849H57.5812ZM62.3192 30.4824C61.8615 30.4824 61.5069 30.3349 61.2555 30.041C61.0049 29.7425 60.8792 29.3463 60.8792 28.8542V26.8135C60.8792 26.7656 60.8936 26.7267 60.9226 26.6978C60.9385 26.6814 60.9577 26.6684 60.9788 26.6597C61 26.651 61.0227 26.6467 61.0456 26.6471H61.4074C61.4293 26.6462 61.4511 26.6504 61.4711 26.6591C61.4912 26.6679 61.509 26.6811 61.5232 26.6978C61.5399 26.712 61.5531 26.7298 61.5618 26.7498C61.5706 26.7699 61.5747 26.7917 61.5739 26.8135V28.818C61.5739 29.5371 61.8877 29.8962 62.5146 29.8962C62.8185 29.8962 63.06 29.8022 63.2382 29.614C63.4173 29.4213 63.506 29.1554 63.506 28.818V26.8135C63.506 26.7656 63.5204 26.7267 63.5494 26.6978C63.5653 26.6814 63.5845 26.6684 63.6056 26.6597C63.6268 26.651 63.6495 26.6467 63.6724 26.6471H64.0342C64.0561 26.6462 64.0779 26.6504 64.0979 26.6591C64.118 26.6679 64.1358 26.6811 64.15 26.6978C64.1647 26.7131 64.1762 26.7313 64.1836 26.7512C64.1911 26.7711 64.1944 26.7923 64.1934 26.8135V30.2436C64.1946 30.2885 64.1791 30.3323 64.15 30.3666C64.1347 30.3813 64.1165 30.3928 64.0966 30.4002C64.0767 30.4077 64.0555 30.411 64.0342 30.41H63.6941C63.6492 30.4112 63.6054 30.3957 63.5711 30.3666C63.542 30.3323 63.5265 30.2885 63.5277 30.2436V29.9252C63.3996 30.1025 63.2309 30.2464 63.0356 30.3449C62.8429 30.4362 62.6041 30.4824 62.3192 30.4824ZM65.4426 30.41C65.3977 30.4112 65.3539 30.3957 65.3196 30.3666C65.2905 30.3323 65.275 30.2885 65.2762 30.2436V25.4386C65.2762 25.3907 65.2906 25.3518 65.3196 25.3229C65.3355 25.3064 65.3547 25.2935 65.3758 25.2848C65.397 25.2761 65.4197 25.2718 65.4426 25.2722H65.7827C65.8046 25.2713 65.8264 25.2754 65.8464 25.2842C65.8665 25.293 65.8843 25.3062 65.8985 25.3229C65.9151 25.3371 65.9284 25.3549 65.9371 25.3749C65.9459 25.395 65.95 25.4168 65.9491 25.4386V27.9569L67.3747 26.7701C67.3998 26.7521 67.4239 26.7327 67.4471 26.7122C67.4758 26.6908 67.5075 26.6737 67.5412 26.6616C67.5813 26.6511 67.6227 26.6463 67.6642 26.6471H68.0477C68.0678 26.6465 68.0879 26.65 68.1066 26.6574C68.1253 26.6648 68.1423 26.676 68.1565 26.6902C68.1708 26.7045 68.182 26.7215 68.1894 26.7402C68.1968 26.7589 68.2003 26.7789 68.1997 26.7991C68.1997 26.8524 68.1707 26.8986 68.1128 26.9366L66.4412 28.3259L68.2937 30.1278C68.3516 30.1757 68.3806 30.2192 68.3806 30.2581C68.3812 30.2782 68.3777 30.2982 68.3703 30.3169C68.3629 30.3357 68.3517 30.3527 68.3375 30.3669C68.3232 30.3811 68.3062 30.3923 68.2875 30.3997C68.2688 30.4071 68.2487 30.4106 68.2286 30.41H67.8523C67.7984 30.4128 67.7444 30.4054 67.6931 30.3883C67.6458 30.3599 67.602 30.3259 67.5629 30.287L65.9482 28.7457V30.2436C65.9487 30.2665 65.9444 30.2892 65.9357 30.3103C65.927 30.3315 65.914 30.3506 65.8976 30.3666C65.8823 30.3813 65.8641 30.3928 65.8442 30.4002C65.8243 30.4077 65.803 30.411 65.7818 30.41H65.4426ZM69.1739 30.41C69.1289 30.4112 69.0851 30.3957 69.0508 30.3666C69.0217 30.3323 69.0063 30.2885 69.0074 30.2436V25.4386C69.0074 25.3907 69.0219 25.3518 69.0508 25.3229C69.0668 25.3064 69.0859 25.2935 69.1071 25.2848C69.1283 25.2761 69.151 25.2718 69.1739 25.2722H69.514C69.5358 25.2713 69.5576 25.2754 69.5777 25.2842C69.5977 25.293 69.6155 25.3062 69.6297 25.3229C69.6464 25.3371 69.6596 25.3549 69.6684 25.3749C69.6772 25.395 69.6813 25.4168 69.6804 25.4386V30.2436C69.6808 30.2665 69.6765 30.2892 69.6678 30.3103C69.6591 30.3315 69.6461 30.3506 69.6297 30.3666C69.6144 30.3813 69.5962 30.3928 69.5763 30.4002C69.5564 30.4077 69.5352 30.411 69.514 30.41H69.1739ZM71.8088 30.4824C71.5727 30.4824 71.3529 30.4344 71.1503 30.3376C70.9585 30.25 70.7919 30.1156 70.6655 29.9469C70.5514 29.7836 70.4907 29.5889 70.4918 29.3897C70.4918 29.0713 70.622 28.8108 70.8825 28.6082C71.1476 28.4001 71.5049 28.2653 71.9535 28.2029L73.0317 28.051V27.8411C73.0317 27.349 72.7495 27.103 72.1851 27.103C71.9734 27.103 71.7997 27.1482 71.6641 27.2405C71.5386 27.3175 71.4342 27.4244 71.3601 27.5517C71.3502 27.5879 71.3302 27.6206 71.3022 27.6457C71.2833 27.6647 71.2543 27.6747 71.2154 27.6747H70.9043C70.8616 27.675 70.8204 27.6595 70.7885 27.6313C70.7602 27.5993 70.7447 27.5581 70.7451 27.5155C70.7496 27.3997 70.8029 27.2694 70.9043 27.1247C71.011 26.9755 71.172 26.847 71.3891 26.7412C71.6062 26.6299 71.8739 26.5747 72.1923 26.5747C72.7323 26.5747 73.1213 26.7023 73.3574 26.9583C73.5935 27.2088 73.712 27.5227 73.712 27.899V30.2436C73.7124 30.2665 73.7081 30.2892 73.6994 30.3103C73.6907 30.3315 73.6777 30.3506 73.6613 30.3666C73.646 30.3813 73.6278 30.3928 73.6079 30.4002C73.588 30.4077 73.5668 30.411 73.5455 30.41H73.2126C73.1677 30.4112 73.1239 30.3957 73.0896 30.3666C73.0605 30.3323 73.0451 30.2885 73.0462 30.2436V29.9324C72.9404 30.0862 72.7857 30.2173 72.5831 30.3232C72.3805 30.429 72.1218 30.4824 71.8088 30.4824ZM71.9608 29.9397C72.2746 29.9397 72.5306 29.8383 72.7278 29.6357C72.9304 29.4277 73.0317 29.1319 73.0317 28.7457V28.543L72.1923 28.6661C71.8495 28.714 71.5917 28.7963 71.418 28.9121C71.2444 29.0233 71.1575 29.1654 71.1575 29.339C71.1575 29.5317 71.2371 29.6819 71.3963 29.7877C71.5555 29.889 71.7437 29.9397 71.9608 29.9397ZM76.6119 30.4824C76.0909 30.4824 75.6956 30.3015 75.4252 29.9397V30.2436C75.4256 30.2665 75.4213 30.2892 75.4126 30.3103C75.4039 30.3315 75.3909 30.3506 75.3745 30.3666C75.3592 30.3813 75.341 30.3928 75.3211 30.4002C75.3012 30.4077 75.28 30.411 75.2587 30.41H74.9259C74.8809 30.4112 74.8371 30.3957 74.8028 30.3666C74.7737 30.3323 74.7583 30.2885 74.7594 30.2436V25.4386C74.7594 25.3907 74.7739 25.3518 74.8028 25.3229C74.8188 25.3064 74.8379 25.2935 74.8591 25.2848C74.8803 25.2761 74.903 25.2718 74.9259 25.2722H75.2804C75.3023 25.2713 75.3241 25.2754 75.3442 25.2842C75.3642 25.293 75.382 25.3062 75.3962 25.3229C75.4109 25.3382 75.4224 25.3564 75.4299 25.3763C75.4373 25.3962 75.4407 25.4174 75.4396 25.4386V27.103C75.7246 26.7502 76.1153 26.5747 76.6119 26.5747C77.114 26.5747 77.493 26.7412 77.748 27.0741C78.004 27.4024 78.1415 27.8149 78.1605 28.3115C78.1659 28.3648 78.1678 28.4372 78.1678 28.5286C78.1678 28.6199 78.1659 28.6923 78.1605 28.7457C78.1415 29.2477 78.004 29.662 77.748 29.9903C77.493 30.3187 77.114 30.4824 76.6119 30.4824ZM76.46 29.8962C76.8028 29.8962 77.0515 29.7904 77.2053 29.5778C77.3645 29.3653 77.4514 29.0858 77.4658 28.7384C77.4718 28.6686 77.4742 28.5986 77.4731 28.5286C77.4731 27.6168 77.1357 27.1609 76.46 27.1609C76.137 27.1609 75.8883 27.2667 75.7146 27.4793C75.5409 27.6919 75.4496 27.9406 75.4396 28.2246L75.4324 28.5069L75.4396 28.7818C75.4541 29.0858 75.5437 29.349 75.7074 29.5706C75.8765 29.7877 76.1271 29.8962 76.46 29.8962ZM82.3712 30.4824C81.8402 30.4824 81.4277 30.3331 81.1338 30.0337C80.8443 29.7352 80.6905 29.3372 80.6706 28.8397L80.6634 28.5286L80.6706 28.2174C80.6896 27.7253 80.847 27.33 81.141 27.0306C81.435 26.7267 81.8456 26.5747 82.3712 26.5747C82.8967 26.5747 83.3074 26.7267 83.6014 27.0306C83.8953 27.3291 84.0527 27.7253 84.0717 28.2174C84.0762 28.2708 84.079 28.3739 84.079 28.5286C84.079 28.6823 84.0762 28.7864 84.0717 28.8397C84.0527 29.3372 83.8953 29.7352 83.6014 30.0337C83.3119 30.3322 82.9021 30.4824 82.3712 30.4824ZM82.3712 29.9252C82.6751 29.9252 82.9139 29.8284 83.0876 29.6357C83.2658 29.4431 83.3626 29.1654 83.377 28.8035C83.383 28.712 83.3855 28.6203 83.3843 28.5286C83.3843 28.3929 83.3815 28.3024 83.377 28.2536C83.3626 27.8918 83.2658 27.6141 83.0876 27.4214C82.9139 27.2287 82.6751 27.1319 82.3712 27.1319C82.0672 27.1319 81.8257 27.2287 81.6475 27.4214C81.4693 27.6141 81.3753 27.8918 81.3653 28.2536L81.3581 28.5286L81.3653 28.8035C81.3744 29.1654 81.4693 29.4431 81.6475 29.6357C81.8257 29.8284 82.0672 29.9252 82.3712 29.9252ZM85.159 30.41C85.114 30.4112 85.0702 30.3957 85.036 30.3666C85.0068 30.3323 84.9914 30.2885 84.9925 30.2436V25.4386C84.9925 25.3907 85.007 25.3518 85.036 25.3229C85.0519 25.3064 85.0711 25.2935 85.0922 25.2848C85.1134 25.2761 85.1361 25.2718 85.159 25.2722H85.4991C85.521 25.2713 85.5427 25.2754 85.5628 25.2842C85.5829 25.293 85.6007 25.3062 85.6149 25.3229C85.6315 25.3371 85.6447 25.3549 85.6535 25.3749C85.6623 25.395 85.6664 25.4168 85.6655 25.4386V30.2436C85.6659 30.2665 85.6617 30.2892 85.6529 30.3103C85.6442 30.3315 85.6313 30.3506 85.6149 30.3666C85.5995 30.3813 85.5814 30.3928 85.5615 30.4002C85.5415 30.4077 85.5203 30.411 85.4991 30.41H85.159ZM86.8523 25.9452C86.8073 25.9463 86.7635 25.9309 86.7293 25.9018C86.7002 25.8675 86.6847 25.8237 86.6859 25.7787V25.388C86.6859 25.34 86.7003 25.2984 86.7293 25.265C86.7452 25.2486 86.7644 25.2356 86.7855 25.2269C86.8067 25.2182 86.8294 25.2139 86.8523 25.2143H87.3082C87.3561 25.2143 87.3977 25.2315 87.4312 25.265C87.4476 25.2809 87.4606 25.3001 87.4693 25.3212C87.478 25.3424 87.4823 25.3651 87.4819 25.388V25.7787C87.4823 25.8016 87.478 25.8243 87.4693 25.8455C87.4606 25.8667 87.4476 25.8858 87.4312 25.9018C87.3969 25.9309 87.3531 25.9463 87.3082 25.9452H86.8523ZM86.9111 30.41C86.8661 30.4112 86.8223 30.3957 86.7881 30.3666C86.759 30.3323 86.7435 30.2885 86.7446 30.2436V26.8135C86.7446 26.7656 86.7591 26.7267 86.7881 26.6978C86.804 26.6814 86.8232 26.6684 86.8443 26.6597C86.8655 26.651 86.8882 26.6467 86.9111 26.6471H87.2584C87.2803 26.6462 87.3021 26.6504 87.3221 26.6591C87.3422 26.6679 87.36 26.6811 87.3742 26.6978C87.3909 26.712 87.4041 26.7298 87.4128 26.7498C87.4216 26.7699 87.4257 26.7917 87.4249 26.8135V30.2436C87.4253 30.2665 87.421 30.2892 87.4123 30.3103C87.4036 30.3315 87.3906 30.3506 87.3742 30.3666C87.3589 30.3813 87.3407 30.3928 87.3208 30.4002C87.3009 30.4077 87.2797 30.411 87.2584 30.41H86.9111ZM88.6641 30.41C88.6191 30.4112 88.5753 30.3957 88.5411 30.3666C88.512 30.3323 88.4965 30.2885 88.4977 30.2436V26.8135C88.4977 26.7656 88.5121 26.7267 88.5411 26.6978C88.557 26.6814 88.5762 26.6684 88.5973 26.6597C88.6185 26.651 88.6412 26.6467 88.6641 26.6471H89.0042C89.0261 26.6462 89.0479 26.6504 89.0679 26.6591C89.088 26.6679 89.1058 26.6811 89.12 26.6978C89.1366 26.712 89.1498 26.7298 89.1586 26.7498C89.1674 26.7699 89.1715 26.7917 89.1706 26.8135V27.1319C89.3099 26.9537 89.4746 26.8154 89.6627 26.7195C89.8554 26.6227 90.0942 26.5747 90.3791 26.5747C90.8422 26.5747 91.2013 26.724 91.4573 27.0234C91.7178 27.3174 91.8481 27.7109 91.8481 28.2029V30.2436C91.8485 30.2665 91.8442 30.2892 91.8354 30.3103C91.8267 30.3315 91.8138 30.3506 91.7974 30.3666C91.7821 30.3813 91.7639 30.3927 91.744 30.4002C91.7241 30.4076 91.7029 30.411 91.6817 30.41H91.3198C91.2749 30.4113 91.231 30.3959 91.1968 30.3666C91.1677 30.3323 91.1522 30.2885 91.1534 30.2436V28.2391C91.1534 27.8963 91.0684 27.6313 90.9001 27.4431C90.7355 27.255 90.4967 27.1609 90.1837 27.1609C89.8798 27.1609 89.6383 27.2577 89.4601 27.4503C89.281 27.6385 89.1923 27.9017 89.1923 28.2391V30.2436C89.1928 30.2665 89.1885 30.2892 89.1798 30.3103C89.1711 30.3315 89.1581 30.3506 89.1417 30.3666C89.1264 30.3813 89.1082 30.3928 89.0883 30.4002C89.0684 30.4077 89.0471 30.411 89.0259 30.41H88.6641ZM94.427 32.002C94.0317 32.002 93.7133 31.9342 93.4718 31.7994C93.2302 31.6691 93.0593 31.519 92.958 31.3507C92.868 31.2137 92.8111 31.0576 92.7915 30.8949C92.7889 30.8724 92.7914 30.8496 92.7989 30.8283C92.8064 30.8069 92.8188 30.7876 92.835 30.7718C92.8683 30.7403 92.9121 30.7223 92.958 30.7212H93.3053C93.3487 30.7212 93.3849 30.7302 93.4139 30.7501C93.4488 30.7837 93.4738 30.8263 93.4862 30.8731C93.5441 31.0269 93.6382 31.1599 93.7684 31.2711C93.9032 31.3869 94.1113 31.4448 94.3908 31.4448C94.7481 31.4448 95.0104 31.3679 95.1795 31.2133C95.3487 31.064 95.4328 30.7963 95.4328 30.41V29.9179C95.304 30.0796 95.1409 30.2106 94.9552 30.3015C94.7391 30.3979 94.5043 30.4449 94.2678 30.439C93.7567 30.439 93.3732 30.277 93.1172 29.9541C92.8666 29.6258 92.7336 29.2115 92.7192 28.7095L92.7119 28.5069L92.7192 28.3115C92.7336 27.814 92.8684 27.4024 93.1244 27.0741C93.3804 26.7412 93.7612 26.5747 94.2678 26.5747C94.7743 26.5747 95.1696 26.7602 95.4545 27.1319V26.8208C95.4545 26.7728 95.469 26.7312 95.4979 26.6978C95.5139 26.6814 95.533 26.6684 95.5542 26.6597C95.5754 26.651 95.5981 26.6467 95.621 26.6471H95.9538C96.0018 26.6471 96.0434 26.6643 96.0768 26.6978C96.0932 26.7137 96.1061 26.7329 96.1148 26.754C96.1236 26.7752 96.1279 26.7979 96.1275 26.8208V30.3304C96.1275 31.4448 95.5604 32.002 94.427 32.002ZM94.4125 29.86C94.7408 29.86 94.9887 29.7515 95.1578 29.5344C95.3289 29.3118 95.4252 29.0408 95.4328 28.7601C95.4389 28.6758 95.4413 28.5913 95.44 28.5069C95.4412 28.4248 95.4388 28.3427 95.4328 28.2608C95.4251 27.9802 95.3288 27.7092 95.1578 27.4865C94.9941 27.2694 94.7454 27.1609 94.4125 27.1609C94.0697 27.1609 93.8218 27.2667 93.6671 27.4793C93.5125 27.6919 93.4283 27.9714 93.4139 28.3187L93.4066 28.5069L93.4139 28.7022C93.4283 29.0451 93.5125 29.3246 93.6671 29.5417C93.8218 29.7542 94.0697 29.86 94.4125 29.86ZM13.642 9.60547C13.6131 9.69592 13.5841 9.78638 13.5841 9.90759V32.6696C13.5841 32.883 13.6429 33.0033 13.7605 33.1237L24.7145 21.2741L13.642 9.60547ZM25.4536 22.0583L28.2857 25.0424L24.2424 27.3943C24.2424 27.3943 19.1045 30.3765 16.2697 32.0382L25.4536 22.0583ZM26.2224 21.2443L29.2608 24.4699C29.7366 24.1994 33.4552 22.0276 33.9861 21.7264C34.5469 21.3953 34.49 20.9421 34.0133 20.7015C33.5737 20.451 29.8551 18.2755 29.2924 17.9228L26.2188 21.247L26.2224 21.2443ZM25.4517 20.46L28.3155 17.3547L24.2288 14.9721C24.2288 14.9721 17.5659 11.0799 15.3489 9.78005L25.4536 20.46H25.4517Z" fill="white"/>
<path d="M0.46814 7.7963C0.46814 5.99704 1.18289 4.27149 2.45515 2.99922C3.72742 1.72696 5.45298 1.01221 7.25223 1.01221H125.748C127.547 1.01221 129.272 1.72696 130.545 2.99922C131.817 4.27149 132.532 5.99704 132.532 7.7963V33.1236C132.532 34.9228 131.817 36.6484 130.545 37.9206C129.272 39.1929 127.547 39.9077 125.748 39.9077H7.25223C5.45298 39.9077 3.72742 39.1929 2.45515 37.9206C1.18289 36.6484 0.46814 34.9228 0.46814 33.1236V7.7963Z" stroke="white" stroke-width="0.904545"/>
<path d="M41.2596 21.5274C39.8376 21.5274 38.7305 21.142 37.9381 20.3714C37.1565 19.5898 36.7377 18.5261 36.6844 17.1801C36.6735 16.8545 36.6681 16.3443 36.6681 15.6496C36.6681 14.9441 36.6726 14.4339 36.6835 14.1191C36.7377 12.784 37.162 11.7311 37.9535 10.9605C38.7467 10.1898 39.8476 9.80445 41.2587 9.80445C42.2139 9.80445 43.0225 9.97812 43.6856 10.3255C44.3585 10.662 44.8633 11.0744 45.1998 11.5629C45.5363 12.0513 45.7154 12.5072 45.7362 12.9306V12.9631C45.7373 13.0035 45.7291 13.0437 45.7121 13.0804C45.6952 13.1171 45.67 13.1494 45.6385 13.1748C45.5695 13.2304 45.4828 13.2593 45.3942 13.2562H44.4336C44.3493 13.2615 44.2651 13.2447 44.1894 13.2074C44.1301 13.1355 44.0858 13.0524 44.0591 12.9631C43.8963 12.4747 43.5815 12.0568 43.1148 11.7094C42.6598 11.3621 42.0402 11.1884 41.2596 11.1884C40.3586 11.1884 39.6531 11.4326 39.1429 11.9211C38.6319 12.4095 38.356 13.1694 38.3117 14.2005C38.3008 14.5153 38.2954 14.9984 38.2954 15.6496C38.2954 16.29 38.3008 16.7731 38.3117 17.0987C38.3551 18.1407 38.6319 18.9114 39.142 19.4107C39.6522 19.8992 40.3577 20.1434 41.2587 20.1434C42.1704 20.1434 42.8986 19.8938 43.4413 19.3944C43.9841 18.8951 44.2554 18.1462 44.2554 17.1476V16.4637H41.8131C41.712 16.4664 41.6134 16.4316 41.5364 16.366C41.469 16.2836 41.4342 16.1793 41.4387 16.073V15.5519C41.4387 15.4434 41.4712 15.3511 41.5364 15.2751C41.5723 15.2383 41.6154 15.2091 41.663 15.1895C41.7106 15.1699 41.7617 15.1603 41.8131 15.1612H45.4928C45.5419 15.1594 45.5907 15.1687 45.6357 15.1884C45.6806 15.2082 45.7206 15.2378 45.7524 15.2751C45.7912 15.3097 45.8216 15.3525 45.8415 15.4004C45.8614 15.4483 45.8702 15.5001 45.8673 15.5519V17.115C45.8673 18.0051 45.6828 18.7812 45.3137 19.4433C44.9453 20.1047 44.39 20.6428 43.7172 20.9901C43.0225 21.3483 42.2039 21.5274 41.2596 21.5274ZM51.4456 21.5274C50.2516 21.5274 49.3236 21.1909 48.6615 20.5179C48.0102 19.8449 47.6628 18.9494 47.6194 17.8314L47.6031 17.1313L47.6194 16.4312C47.6628 15.324 48.0156 14.4339 48.6777 13.7609C49.3399 13.0771 50.2625 12.7352 51.4456 12.7352C52.6288 12.7352 53.5514 13.0771 54.2136 13.7609C54.8757 14.4339 55.2285 15.324 55.2719 16.4312C55.2827 16.5506 55.2882 16.7839 55.2882 17.1313C55.2882 17.4786 55.2827 17.712 55.2719 17.8314C55.2285 18.9494 54.8757 19.8449 54.2136 20.5179C53.5623 21.1909 52.6396 21.5274 51.4456 21.5274ZM51.4456 20.2737C52.1295 20.2737 52.6668 20.0566 53.0576 19.6224C53.4592 19.1882 53.6763 18.5641 53.7088 17.75C53.7197 17.6414 53.7251 17.4352 53.7251 17.1313C53.7251 16.8273 53.7197 16.6211 53.7088 16.5126C53.6763 15.6985 53.4592 15.0743 53.0576 14.6402C52.6668 14.206 52.1295 13.9889 51.4456 13.9889C50.7618 13.9889 50.2191 14.206 49.8175 14.6402C49.4158 15.0743 49.2042 15.6985 49.1825 16.5126L49.1662 17.1313L49.1825 17.75C49.2042 18.5641 49.4158 19.1882 49.8175 19.6224C50.2191 20.0566 50.7618 20.2737 51.4456 20.2737ZM60.795 21.5274C59.601 21.5274 58.673 21.1909 58.0108 20.5179C57.3596 19.8449 57.0122 18.9494 56.9688 17.8314L56.9525 17.1313L56.9688 16.4312C57.0122 15.324 57.365 14.4339 58.0271 13.7609C58.6893 13.0771 59.6119 12.7352 60.795 12.7352C61.9782 12.7352 62.9008 13.0771 63.5629 13.7609C64.2251 14.4339 64.5778 15.324 64.6213 16.4312C64.6321 16.5506 64.6375 16.7839 64.6375 17.1313C64.6375 17.4786 64.6321 17.712 64.6213 17.8314C64.5778 18.9494 64.2251 19.8449 63.5629 20.5179C62.9117 21.1909 61.989 21.5274 60.795 21.5274ZM60.795 20.2737C61.4789 20.2737 62.0162 20.0566 62.4069 19.6224C62.8085 19.1882 63.0256 18.5641 63.0582 17.75C63.0691 17.6414 63.0745 17.4352 63.0745 17.1313C63.0745 16.8273 63.0691 16.6211 63.0582 16.5126C63.0256 15.6985 62.8085 15.0743 62.4069 14.6402C62.0162 14.206 61.4789 13.9889 60.795 13.9889C60.1112 13.9889 59.5685 14.206 59.1668 14.6402C58.7652 15.0743 58.5536 15.6985 58.5319 16.5126L58.5156 17.1313L58.5319 17.75C58.5536 18.5641 58.7652 19.1882 59.1668 19.6224C59.5685 20.0566 60.1112 20.2737 60.795 20.2737ZM70.1453 24.9465C69.2552 24.9465 68.5388 24.7946 67.9961 24.4907C67.4534 24.1976 67.0681 23.8611 66.8401 23.4812C66.6122 23.1013 66.4873 22.7594 66.4656 22.4554C66.4592 22.4049 66.4648 22.3535 66.4817 22.3055C66.4987 22.2574 66.5266 22.214 66.5633 22.1786C66.6382 22.1075 66.7369 22.0668 66.8401 22.0647H67.6216C67.7193 22.0647 67.8007 22.0864 67.8659 22.1298C67.931 22.1841 67.9853 22.2763 68.0287 22.4066C68.1589 22.7539 68.3706 23.0524 68.6637 23.3021C68.9676 23.5626 69.4343 23.6928 70.0639 23.6928C70.8671 23.6928 71.4587 23.5192 71.8386 23.1718C72.2185 22.8353 72.4085 22.2329 72.4085 21.3645V20.2574C72.119 20.6214 71.7519 20.9163 71.3339 21.1203C70.8997 21.3266 70.3841 21.4297 69.7871 21.4297C68.6365 21.4297 67.7736 21.066 67.1983 20.3388C66.6339 19.6007 66.3354 18.6672 66.3028 17.5383L66.2865 17.0824L66.3028 16.6428C66.3354 15.5248 66.6393 14.5967 67.2146 13.8586C67.7899 13.1097 68.6474 12.7352 69.7871 12.7352C70.9268 12.7352 71.8169 13.1531 72.4573 13.9889V13.2888C72.4573 13.1802 72.4899 13.088 72.555 13.012C72.5909 12.9751 72.634 12.946 72.6816 12.9264C72.7292 12.9067 72.7803 12.8971 72.8318 12.898H73.5808C73.6893 12.898 73.7816 12.936 73.8576 13.012C73.8945 13.0479 73.9236 13.091 73.9432 13.1386C73.9628 13.1862 73.9724 13.2373 73.9715 13.2888V21.1854C73.9715 23.6928 72.6961 24.9465 70.1453 24.9465ZM70.1128 20.1271C70.8509 20.1271 71.4099 19.8829 71.7898 19.3944C72.1697 18.906 72.3759 18.3253 72.4085 17.6523C72.4193 17.5546 72.4248 17.3646 72.4248 17.0824C72.4248 16.8111 72.4193 16.6265 72.4085 16.5288C72.3759 15.8559 72.1697 15.2751 71.7898 14.7867C71.4207 14.2982 70.8617 14.054 70.1128 14.054C69.3421 14.054 68.7831 14.2928 68.4357 14.7704C68.0884 15.248 67.8984 15.8776 67.8659 16.6591L67.8496 17.0824L67.8659 17.522C67.8984 18.2927 68.0884 18.9223 68.4357 19.4107C68.7831 19.8883 69.3421 20.1271 70.1128 20.1271ZM76.7829 21.3645C76.6817 21.3672 76.5832 21.3324 76.5061 21.2669C76.4405 21.1898 76.4057 21.0912 76.4084 20.9901V10.1789C76.4062 10.1312 76.4137 10.0834 76.4305 10.0386C76.4473 9.99386 76.473 9.95296 76.5061 9.91842C76.542 9.88154 76.5851 9.85241 76.6327 9.83281C76.6803 9.8132 76.7314 9.80356 76.7829 9.80445H77.5481C77.5972 9.80265 77.646 9.81197 77.691 9.8317C77.7359 9.85144 77.7758 9.88109 77.8077 9.91842C77.8452 9.9504 77.8749 9.99046 77.8946 10.0356C77.9144 10.0807 77.9236 10.1297 77.9217 10.1789V20.9901C77.9217 21.0986 77.8846 21.1909 77.8077 21.2669C77.7732 21.2999 77.7323 21.3257 77.6875 21.3425C77.6427 21.3593 77.595 21.3668 77.5472 21.3645H76.7829ZM83.7379 21.5274C82.619 21.5274 81.7235 21.1854 81.0514 20.5016C80.3884 19.8069 80.0248 18.8626 79.9596 17.6686L79.9443 17.115L79.9596 16.5777C80.0365 15.4054 80.4056 14.4719 81.0677 13.7772C81.7398 13.0825 82.6244 12.7352 83.7207 12.7352C84.9265 12.7352 85.86 13.1205 86.5221 13.8912C87.1833 14.651 87.5144 15.6822 87.5144 16.9847V17.2615C87.5144 17.3701 87.4773 17.4623 87.4004 17.5383C87.366 17.5713 87.3252 17.597 87.2806 17.6137C87.236 17.6305 87.1885 17.6381 87.1408 17.636H81.5064V17.7825C81.5381 18.4881 81.7506 19.0905 82.1414 19.5898C82.543 20.0783 83.0686 20.3225 83.7198 20.3225C84.22 20.3225 84.6262 20.2248 84.941 20.0294C85.2666 19.8232 85.5054 19.6115 85.6574 19.3944C85.7551 19.2642 85.8256 19.1882 85.869 19.1665C85.9233 19.1339 86.0156 19.1177 86.1458 19.1177H86.9445C87.0422 19.1177 87.1236 19.1448 87.1888 19.1991C87.2214 19.227 87.2472 19.2621 87.2642 19.3016C87.2811 19.3412 87.2887 19.3841 87.2865 19.427C87.2865 19.6658 87.1345 19.9535 86.8306 20.2899C86.5366 20.6264 86.1187 20.9195 85.5769 21.1692C85.045 21.408 84.4326 21.5274 83.7379 21.5274ZM85.9676 16.5126V16.4637C85.9676 15.7148 85.7614 15.1069 85.3489 14.6402C84.9473 14.1626 84.4055 13.9238 83.7207 13.9238C83.0378 13.9238 82.4951 14.1626 82.0926 14.6402C81.7027 15.1069 81.5073 15.7148 81.5073 16.4637V16.5126H85.9676ZM94.0389 21.3645C93.9377 21.3672 93.8392 21.3324 93.7621 21.2669C93.6965 21.1898 93.6618 21.0912 93.6644 20.9901V10.358C93.6644 10.2386 93.697 10.1464 93.7621 10.0812C93.798 10.0444 93.8411 10.0152 93.8887 9.99562C93.9363 9.97602 93.9874 9.96637 94.0389 9.96727H98.1745C99.401 9.96727 100.367 10.2658 101.073 10.8628C101.778 11.4598 102.131 12.3227 102.131 13.4516C102.131 14.5805 101.778 15.4434 101.073 16.0404C100.378 16.6265 99.4119 16.9196 98.1745 16.9196H95.2926V20.9901C95.2926 21.0986 95.2546 21.1909 95.1786 21.2669C95.1015 21.3324 95.003 21.3672 94.9018 21.3645H94.0389ZM98.0931 15.5519C98.8854 15.5519 99.4824 15.3728 99.8841 15.0146C100.297 14.6564 100.503 14.1354 100.503 13.4516C100.503 12.7677 100.302 12.2467 99.9003 11.8885C99.4987 11.5195 98.8963 11.3349 98.0931 11.3349H95.2763V15.5519H98.0931ZM104.29 21.3645C104.189 21.3672 104.09 21.3324 104.013 21.2669C103.948 21.1898 103.913 21.0912 103.916 20.9901V10.1789C103.913 10.1312 103.921 10.0834 103.938 10.0386C103.954 9.99386 103.98 9.95296 104.013 9.91842C104.049 9.88154 104.092 9.85241 104.14 9.83281C104.188 9.8132 104.239 9.80356 104.29 9.80445H105.055C105.105 9.80251 105.154 9.81176 105.199 9.8315C105.244 9.85124 105.284 9.88096 105.316 9.91842C105.353 9.9504 105.383 9.99046 105.403 10.0356C105.423 10.0807 105.432 10.1297 105.43 10.1789V20.9901C105.43 21.0986 105.392 21.1909 105.316 21.2669C105.281 21.2999 105.24 21.3257 105.196 21.3425C105.151 21.3593 105.103 21.3668 105.055 21.3645H104.29ZM110.219 21.5274C109.707 21.5317 109.201 21.4204 108.738 21.2017C108.306 21.0045 107.931 20.7022 107.647 20.3225C107.39 19.955 107.254 19.517 107.256 19.0688C107.256 18.3524 107.549 17.7663 108.135 17.3104C108.732 16.8436 109.536 16.5397 110.545 16.3986L112.971 16.0567V15.5845C112.971 14.4773 112.336 13.9238 111.066 13.9238C110.588 13.9238 110.198 14.0269 109.894 14.2331C109.611 14.4063 109.376 14.6468 109.21 14.9332C109.188 15.0148 109.142 15.0882 109.08 15.1449C109.036 15.1883 108.971 15.21 108.884 15.21H108.184C108.088 15.2107 107.995 15.1759 107.924 15.1123C107.86 15.0405 107.825 14.9477 107.826 14.8518C107.837 14.5913 107.956 14.2982 108.184 13.9726C108.423 13.6361 108.787 13.3485 109.275 13.1097C109.764 12.86 110.366 12.7352 111.082 12.7352C112.298 12.7352 113.172 13.0228 113.704 13.5981C114.236 14.1626 114.502 14.8681 114.502 15.7148V20.9901C114.502 21.0986 114.464 21.1909 114.388 21.2669C114.353 21.2999 114.312 21.3257 114.267 21.3425C114.223 21.3593 114.175 21.3668 114.127 21.3645H113.378C113.277 21.3672 113.178 21.3324 113.101 21.2669C113.036 21.1898 113.001 21.0912 113.004 20.9901V20.2899C112.765 20.6373 112.417 20.9304 111.962 21.1692C111.506 21.408 110.925 21.5274 110.219 21.5274ZM110.561 20.3062C111.267 20.3062 111.842 20.0783 112.287 19.6224C112.743 19.1556 112.971 18.4881 112.971 17.6197V17.1638L111.082 17.4406C110.312 17.5492 109.731 17.7337 109.34 17.9942C108.949 18.2439 108.754 18.5641 108.754 18.9548C108.754 19.389 108.933 19.7255 109.291 19.9643C109.65 20.1923 110.073 20.3062 110.561 20.3062ZM118.149 24.4581C118.106 24.4582 118.064 24.4497 118.025 24.4329C117.985 24.4161 117.95 24.3914 117.921 24.3604C117.89 24.3311 117.865 24.2958 117.848 24.2565C117.831 24.2173 117.823 24.1751 117.823 24.1325C117.83 24.0302 117.858 23.9305 117.904 23.8394L119.158 20.8598L116.048 13.5167C115.994 13.3756 115.967 13.2833 115.967 13.2399C115.965 13.1946 115.973 13.1495 115.99 13.1073C116.006 13.0651 116.032 13.0268 116.064 12.9948C116.096 12.9627 116.134 12.9376 116.176 12.9209C116.218 12.9043 116.263 12.8965 116.309 12.898H117.107C117.28 12.898 117.411 12.9903 117.497 13.1748L119.972 19.1014L122.512 13.1748C122.599 12.9903 122.735 12.898 122.919 12.898H123.684C123.782 12.898 123.864 12.9306 123.929 12.9957C123.96 13.025 123.984 13.0603 124.001 13.0995C124.018 13.1387 124.027 13.181 124.026 13.2236C124.026 13.2562 123.999 13.3539 123.945 13.5167L119.321 24.1813C119.234 24.3658 119.098 24.4581 118.914 24.4581H118.149Z" fill="white"/>
</g>
<defs>
<clipPath id="clip0_3_2696">
<rect width="132.968" height="39.8" fill="white" transform="translate(0.0158691 0.560059)"/>
</clipPath>
</defs>
</svg>
