<svg width="135" height="33" viewBox="0 0 135 33" fill="none" xmlns="http://www.w3.org/2000/svg">
<g clip-path="url(#clip0_3_2681)">
<path d="M2.867 25.3801C6.695 17.0781 10.466 8.85606 14.309 0.560059H20.736C17.43 7.70406 14.374 14.5351 11.081 21.6851C8.237 22.3711 5.264 23.6751 2.867 25.3801ZM29.521 32.2101C25.987 24.5401 22.459 16.8671 18.926 9.19806C20.006 6.87806 21.034 4.53306 22.153 2.23306C26.367 11.4061 30.584 20.5771 34.818 29.7381C33.075 30.6061 31.285 31.3821 29.521 32.2101ZM0.5 29.9801C6.769 23.6851 14.287 21.4771 23.054 23.3581C24.119 25.7521 25.32 28.1081 26.383 30.5051C24.1296 29.3371 21.6572 28.6525 19.124 28.4951C15.354 28.2051 11.413 28.8411 8.144 30.8171C7.393 31.3121 6.544 31.8301 5.999 32.5601C3.17 31.2121 1.335 30.3531 0.5 29.9801Z" fill="white"/>
<path fill-rule="evenodd" clip-rule="evenodd" d="M18.914 13.5141L21.493 19.1341C21.5927 19.3513 21.6319 19.5915 21.6062 19.8292C21.5806 20.0669 21.4911 20.2932 21.3473 20.4842C21.2035 20.6751 21.0107 20.8236 20.7893 20.9139C20.568 21.0042 20.3263 21.033 20.09 20.9971C19.1821 20.8506 18.2653 20.7657 17.346 20.7431C16.553 20.7301 15.789 20.7631 15.052 20.8431C14.8808 20.8613 14.7079 20.8339 14.5508 20.7637C14.3937 20.6935 14.2579 20.5829 14.1574 20.4433C14.0568 20.3036 13.995 20.1398 13.9783 19.9685C13.9615 19.7972 13.9904 19.6246 14.062 19.4681L16.762 13.5181C16.8558 13.3117 17.007 13.1366 17.1975 13.0136C17.3881 12.8907 17.6099 12.8251 17.8367 12.8247C18.0634 12.8243 18.2855 12.889 18.4765 13.0113C18.6675 13.1335 18.8193 13.308 18.914 13.5141Z" fill="white" fill-opacity="0.5"/>
<path d="M59.4 9.41022V24.4032H55.44V23.2322C54.1 24.3132 52.45 24.8542 50.49 24.8542C48.509 24.8542 46.789 24.1032 45.329 22.6002C43.869 21.0982 43.139 19.2052 43.139 16.9212C43.139 14.6382 43.873 12.7402 45.344 11.2272C46.814 9.71522 48.529 8.95922 50.489 8.95922C52.469 8.95922 54.119 9.50922 55.439 10.6112V9.41022H59.399H59.4ZM51.18 21.3992C52.3 21.3992 53.29 20.9832 54.15 20.1522C55.01 19.3202 55.44 18.2432 55.44 16.9222C55.44 15.5992 55.01 14.5172 54.15 13.6762C53.29 12.8352 52.3 12.4142 51.18 12.4142C49.959 12.4142 48.954 12.8242 48.164 13.6462C47.374 14.4672 46.979 15.5592 46.979 16.9212C46.979 18.2842 47.374 19.3712 48.164 20.1812C48.954 20.9932 49.96 21.3992 51.18 21.3992ZM60.945 20.4372L64.935 19.6262C65.115 20.9882 66.145 21.6692 68.025 21.6692C68.745 21.6692 69.315 21.5292 69.735 21.2492C70.155 20.9682 70.365 20.6072 70.365 20.1672C70.365 19.5052 69.815 19.0552 68.715 18.8142L65.655 18.1842C64.295 17.9032 63.25 17.3922 62.52 16.6512C61.79 15.9102 61.425 14.9982 61.425 13.9162C61.425 12.4542 61.98 11.2622 63.09 10.3412C64.2 9.41922 65.686 8.95922 67.546 8.95922C69.286 8.95922 70.741 9.36922 71.911 10.1902C73.081 11.0122 73.796 12.0832 74.056 13.4062L70.276 14.1562C70.2415 13.8579 70.145 13.5702 69.9925 13.3115C69.8401 13.0528 69.6352 12.8289 69.391 12.6542C68.881 12.2742 68.226 12.0842 67.426 12.0842C66.706 12.0842 66.186 12.2292 65.866 12.5192C65.546 12.8092 65.386 13.1552 65.386 13.5562C65.386 14.1962 65.836 14.6182 66.736 14.8182L70.306 15.5992C71.586 15.8792 72.561 16.3952 73.231 17.1472C73.901 17.8972 74.236 18.7942 74.236 19.8362C74.236 21.4592 73.641 22.7012 72.451 23.5622C71.261 24.4232 69.666 24.8542 67.666 24.8542C65.886 24.8542 64.366 24.4882 63.106 23.7572C61.846 23.0272 61.125 21.9192 60.945 20.4372ZM91.798 9.40922V24.4032H87.838V23.2322C86.498 24.3132 84.848 24.8542 82.888 24.8542C80.908 24.8542 79.187 24.1032 77.727 22.6002C76.267 21.0982 75.537 19.2052 75.537 16.9212C75.537 14.6382 76.272 12.7402 77.742 11.2272C79.212 9.71522 80.927 8.95922 82.887 8.95922C84.867 8.95922 86.517 9.50922 87.837 10.6112V9.41022H91.798V9.40922ZM83.578 21.3992C84.698 21.3992 85.688 20.9832 86.548 20.1522C87.408 19.3202 87.838 18.2432 87.838 16.9222C87.838 15.5992 87.408 14.5172 86.548 13.6762C85.688 12.8352 84.698 12.4142 83.578 12.4142C82.358 12.4142 81.352 12.8242 80.562 13.6462C79.772 14.4672 79.377 15.5592 79.377 16.9212C79.377 18.2842 79.772 19.3712 80.562 20.1812C81.352 20.9932 82.358 21.3992 83.578 21.3992ZM104.712 17.1022L109.752 24.4032H105.042L101.772 19.6562L98.532 24.4032H93.82L98.86 17.1022L93.82 9.37922H98.53L101.771 14.4272L105.041 9.37922H109.751L104.712 17.1022ZM115.946 24.4032H111.985V9.41022H115.946V24.4032ZM121.989 9.37922L125.949 18.9652L130.09 9.37922H134.5L126.886 26.9832L125.799 29.5122H121.389L122.469 26.9972L123.789 23.9232L117.579 9.37922H121.989ZM113.966 2.94922C114.656 2.94922 115.234 3.18822 115.701 3.66422C116.168 4.14022 116.402 4.70222 116.402 5.35122C116.402 6.01922 116.168 6.57622 115.701 7.02222C115.234 7.46822 114.656 7.69122 113.966 7.69122C113.255 7.69122 112.671 7.46822 112.214 7.02222C111.758 6.57622 111.529 6.01922 111.529 5.35122C111.529 4.70222 111.763 4.14122 112.23 3.66422C112.697 3.18822 113.275 2.95022 113.966 2.95022V2.94922Z" fill="white"/>
</g>
<defs>
<clipPath id="clip0_3_2681">
<rect width="134" height="32" fill="white" transform="translate(0.5 0.560059)"/>
</clipPath>
</defs>
</svg>
