<svg width="133" height="41" viewBox="0 0 133 41" fill="none" xmlns="http://www.w3.org/2000/svg">
<g clip-path="url(#clip0_3_2687)">
<path d="M0.46814 7.7963C0.46814 5.99704 1.18289 4.27149 2.45515 2.99922C3.72742 1.72696 5.45298 1.01221 7.25223 1.01221H125.748C127.547 1.01221 129.272 1.72696 130.545 2.99922C131.817 4.27149 132.532 5.99704 132.532 7.7963V33.1236C132.532 34.9228 131.817 36.6484 130.545 37.9206C129.272 39.1929 127.547 39.9077 125.748 39.9077H7.25223C5.45298 39.9077 3.72742 39.1929 2.45515 37.9206C1.18289 36.6484 0.46814 34.9228 0.46814 33.1236V7.7963Z" stroke="white" stroke-width="0.904545"/>
<path d="M36.2999 21.3645C36.2572 21.3647 36.215 21.3561 36.1758 21.3393C36.1366 21.3225 36.1012 21.2978 36.0719 21.2669C36.0409 21.2376 36.0163 21.2022 35.9995 21.163C35.9827 21.1238 35.9741 21.0816 35.9743 21.0389C35.9743 20.9521 35.9797 20.8924 35.9905 20.8598L40.0284 10.3255C40.1153 10.0867 40.2889 9.96727 40.5494 9.96727H41.6566C41.9171 9.96727 42.0908 10.0867 42.1776 10.3255L46.1992 20.8598L46.2318 21.0389C46.2318 21.1257 46.1992 21.2017 46.1341 21.2669C46.1048 21.2978 46.0695 21.3225 46.0303 21.3393C45.9911 21.3561 45.9488 21.3647 45.9062 21.3645H45.0758C44.9768 21.3709 44.8788 21.3421 44.799 21.2831C44.7411 21.229 44.6965 21.1621 44.6687 21.0878L43.7732 18.7757H38.4319L37.5364 21.0878C37.506 21.1649 37.4554 21.2324 37.3899 21.2831C37.3155 21.3405 37.2231 21.3694 37.1294 21.3645H36.2999ZM43.3011 17.3755L41.103 11.5955L38.905 17.3755H43.3011ZM48.1512 24.4581C48.0998 24.459 48.0487 24.4493 48.0011 24.4297C47.9535 24.4101 47.9104 24.381 47.8745 24.3441C47.8414 24.3096 47.8156 24.2687 47.7988 24.2239C47.782 24.1791 47.7745 24.1314 47.7768 24.0836V13.2725C47.7745 13.2247 47.782 13.177 47.7988 13.1322C47.8156 13.0874 47.8414 13.0465 47.8745 13.012C47.9104 12.9751 47.9535 12.946 48.0011 12.9264C48.0487 12.9067 48.0998 12.8971 48.1512 12.898H48.9002C48.9494 12.8961 48.9984 12.9053 49.0436 12.925C49.0887 12.9448 49.1287 12.9745 49.1607 13.012C49.1982 13.0439 49.2279 13.084 49.2476 13.1291C49.2674 13.1743 49.2766 13.2233 49.2747 13.2725V13.9889C49.8825 13.1531 50.7726 12.7352 51.9449 12.7352C53.0846 12.7352 53.9367 13.0934 54.5012 13.8098C55.0764 14.5262 55.3858 15.4488 55.4292 16.5777C55.4401 16.6971 55.4455 16.8816 55.4455 17.1313C55.4455 17.3809 55.4401 17.5655 55.4292 17.6849C55.3858 18.8029 55.0764 19.7255 54.5012 20.4528C53.9259 21.1692 53.0738 21.5274 51.9449 21.5274C50.816 21.5274 49.9368 21.1203 49.3073 20.3062V24.0836C49.3095 24.1314 49.302 24.1791 49.2852 24.2239C49.2684 24.2687 49.2427 24.3096 49.2096 24.3441C49.1776 24.3816 49.1375 24.4113 49.0924 24.431C49.0473 24.4508 48.9983 24.46 48.9491 24.4581H48.1512ZM51.603 20.2085C52.3737 20.2085 52.9327 19.9697 53.28 19.4921C53.6382 19.0145 53.8336 18.385 53.8662 17.6034C53.877 17.4949 53.8824 17.3375 53.8824 17.1313C53.8824 15.0798 53.1226 14.054 51.603 14.054C50.854 14.054 50.2896 14.3037 49.9097 14.803C49.5406 15.2914 49.3398 15.8776 49.3073 16.5614L49.291 17.1801L49.3073 17.8151C49.329 18.4555 49.5352 19.0145 49.926 19.4921C50.3167 19.9697 50.8757 20.2085 51.603 20.2085ZM57.8507 24.4581C57.7992 24.459 57.7481 24.4493 57.7005 24.4297C57.6529 24.4101 57.6098 24.381 57.5739 24.3441C57.5408 24.3096 57.5151 24.2687 57.4983 24.2239C57.4815 24.1791 57.474 24.1314 57.4762 24.0836V13.2725C57.474 13.2247 57.4815 13.177 57.4983 13.1322C57.5151 13.0874 57.5408 13.0465 57.5739 13.012C57.6098 12.9751 57.6529 12.946 57.7005 12.9264C57.7481 12.9067 57.7992 12.8971 57.8507 12.898H58.5996C58.6489 12.8961 58.6979 12.9053 58.743 12.925C58.7881 12.9448 58.8282 12.9745 58.8602 13.012C58.8976 13.0439 58.9273 13.084 58.9471 13.1291C58.9668 13.1743 58.9761 13.2233 58.9741 13.2725V13.9889C59.582 13.1531 60.4721 12.7352 61.6444 12.7352C62.7841 12.7352 63.6362 13.0934 64.2006 13.8098C64.7759 14.5262 65.0852 15.4488 65.1287 16.5777C65.1395 16.6971 65.1449 16.8816 65.1449 17.1313C65.1449 17.3809 65.1395 17.5655 65.1287 17.6849C65.0852 18.8029 64.7759 19.7255 64.2006 20.4528C63.6253 21.1692 62.7732 21.5274 61.6444 21.5274C60.5155 21.5274 59.6363 21.1203 59.0067 20.3062V24.0836C59.0089 24.1314 59.0014 24.1791 58.9846 24.2239C58.9678 24.2687 58.9421 24.3096 58.909 24.3441C58.877 24.3816 58.837 24.4113 58.7918 24.431C58.7467 24.4508 58.6977 24.46 58.6485 24.4581H57.8507ZM61.3024 20.2085C62.0731 20.2085 62.6321 19.9697 62.9795 19.4921C63.3377 19.0145 63.533 18.385 63.5656 17.6034C63.5765 17.4949 63.5819 17.3375 63.5819 17.1313C63.5819 15.0798 62.8221 14.054 61.3024 14.054C60.5535 14.054 59.989 14.3037 59.6091 14.803C59.2401 15.2914 59.0393 15.8776 59.0067 16.5614L58.9904 17.1801L59.0067 17.8151C59.0284 18.4555 59.2346 19.0145 59.6254 19.4921C60.0162 19.9697 60.5752 20.2085 61.3024 20.2085ZM75.0244 21.5274C74.1244 21.5274 73.3419 21.3863 72.6807 21.104C72.0294 20.8218 71.5301 20.4528 71.1828 19.9969C70.8354 19.5301 70.6509 19.0308 70.6292 18.4989C70.6292 18.4121 70.6618 18.3361 70.7269 18.271C70.7602 18.2352 70.8006 18.2067 70.8454 18.1871C70.8902 18.1675 70.9385 18.1572 70.9874 18.157H71.8178C72.024 18.157 72.1651 18.2656 72.2411 18.4827C72.3388 18.9386 72.6156 19.3293 73.0715 19.655C73.5382 19.9806 74.1895 20.1434 75.0253 20.1434C75.9262 20.1434 76.6046 19.986 77.0605 19.6712C77.5164 19.3456 77.7444 18.8951 77.7444 18.3198C77.7444 17.9508 77.6304 17.6523 77.4024 17.4243C77.1853 17.1964 76.8597 16.9956 76.4255 16.8219C75.9913 16.6482 75.3401 16.4312 74.4717 16.1706C73.6251 15.9318 72.9521 15.6768 72.4528 15.4054C71.9535 15.134 71.579 14.7975 71.3293 14.3959C71.0797 13.9943 70.9548 13.4896 70.9548 12.8817C70.9548 12.2956 71.1122 11.7691 71.427 11.3024C71.7526 10.8356 72.214 10.472 72.811 10.2115C73.408 9.94013 74.1189 9.80445 74.9439 9.80445C75.7905 9.80445 76.5178 9.95642 77.1256 10.2603C77.7335 10.5534 78.1948 10.9279 78.5096 11.3838C78.8244 11.8397 78.9926 12.2956 79.0143 12.7515C79.0143 12.8383 78.9818 12.9143 78.9166 12.9794C78.8624 13.0445 78.781 13.0771 78.6724 13.0771H77.8095C77.5815 13.0771 77.4404 12.974 77.3862 12.7677C77.321 12.3119 77.0659 11.9374 76.6209 11.6443C76.1759 11.3404 75.6169 11.1884 74.9439 11.1884C74.2058 11.1884 73.6251 11.3295 73.2017 11.6117C72.7784 11.894 72.5667 12.3119 72.5667 12.8654C72.5667 13.2345 72.6644 13.5384 72.8598 13.7772C73.066 14.016 73.3754 14.2277 73.7879 14.4122C74.2003 14.5859 74.8028 14.7867 75.5952 15.0146C76.5178 15.2643 77.245 15.5248 77.7769 15.7962C78.3088 16.0567 78.705 16.3877 78.9655 16.7894C79.226 17.1801 79.3563 17.6794 79.3563 18.2873C79.3563 19.2968 78.9655 20.0891 78.184 20.6644C77.4024 21.2397 76.3486 21.5274 75.0244 21.5274ZM84.5845 21.3645C82.8695 21.3645 82.012 20.4093 82.012 18.4989V14.2005H80.742C80.6409 14.2032 80.5423 14.1684 80.4652 14.1029C80.3997 14.0258 80.3649 13.9272 80.3675 13.8261V13.2725C80.3653 13.2247 80.3728 13.177 80.3896 13.1322C80.4064 13.0874 80.4321 13.0465 80.4652 13.012C80.5011 12.9751 80.5442 12.946 80.5918 12.9264C80.6394 12.9067 80.6905 12.8971 80.742 12.898H82.012V10.1789C82.0098 10.1312 82.0173 10.0834 82.0341 10.0386C82.0509 9.99386 82.0766 9.95296 82.1097 9.91842C82.1456 9.88154 82.1887 9.85241 82.2363 9.83281C82.2839 9.8132 82.335 9.80356 82.3865 9.80445H83.1517C83.2009 9.80251 83.25 9.81176 83.2951 9.8315C83.3402 9.85124 83.3803 9.88096 83.4122 9.91842C83.4497 9.9504 83.4794 9.99046 83.4992 10.0356C83.5189 10.0807 83.5281 10.1297 83.5262 10.1789V12.898H85.5452C85.5944 12.8961 85.6434 12.9053 85.6885 12.925C85.7336 12.9448 85.7737 12.9745 85.8057 13.012C85.8431 13.0439 85.8728 13.084 85.8926 13.1291C85.9123 13.1743 85.9216 13.2233 85.9196 13.2725V13.8261C85.9196 13.9346 85.8816 14.0269 85.8057 14.1029C85.7711 14.1359 85.7302 14.1617 85.6854 14.1785C85.6407 14.1953 85.5929 14.2028 85.5452 14.2005H83.5262V18.385C83.5262 18.9277 83.6185 19.3402 83.803 19.6224C83.9875 19.8938 84.2915 20.0294 84.7148 20.0294H85.708C85.7572 20.0275 85.8062 20.0367 85.8513 20.0565C85.8964 20.0762 85.9365 20.1059 85.9685 20.1434C86.0059 20.1754 86.0357 20.2154 86.0554 20.2606C86.0751 20.3057 86.0844 20.3547 86.0825 20.4039V20.9901C86.0825 21.0986 86.0445 21.1909 85.9685 21.2669C85.934 21.2999 85.8931 21.3257 85.8483 21.3425C85.8035 21.3593 85.7558 21.3668 85.708 21.3645H84.5845ZM91.1072 21.5274C89.9132 21.5274 88.9851 21.1909 88.323 20.5179C87.6717 19.8449 87.3244 18.9494 87.281 17.8314L87.2647 17.1313L87.281 16.4312C87.3244 15.324 87.6772 14.4339 88.3393 13.7609C89.0014 13.0771 89.9241 12.7352 91.1072 12.7352C92.2904 12.7352 93.213 13.0771 93.8751 13.7609C94.5372 14.4339 94.89 15.324 94.9334 16.4312C94.9443 16.5506 94.9497 16.7839 94.9497 17.1313C94.9497 17.4786 94.9443 17.712 94.9334 17.8314C94.89 18.9494 94.5372 19.8449 93.8751 20.5179C93.2238 21.1909 92.3012 21.5274 91.1072 21.5274ZM91.1072 20.2737C91.791 20.2737 92.3283 20.0566 92.7191 19.6224C93.1207 19.1882 93.3378 18.5641 93.3704 17.75C93.3812 17.6414 93.3867 17.4352 93.3867 17.1313C93.3867 16.8273 93.3812 16.6211 93.3704 16.5126C93.3378 15.6985 93.1207 15.0743 92.7191 14.6402C92.3283 14.206 91.791 13.9889 91.1072 13.9889C90.4234 13.9889 89.8806 14.206 89.479 14.6402C89.0774 15.0743 88.8657 15.6985 88.844 16.5126L88.8277 17.1313L88.844 17.75C88.8657 18.5641 89.0774 19.1882 89.479 19.6224C89.8806 20.0566 90.4234 20.2737 91.1072 20.2737ZM97.3621 21.3645C97.261 21.3672 97.1624 21.3324 97.0853 21.2669C97.0198 21.1898 96.985 21.0912 96.9877 20.9901V13.2888C96.9877 13.1802 97.0202 13.088 97.0853 13.012C97.1213 12.9751 97.1643 12.946 97.2119 12.9264C97.2595 12.9067 97.3107 12.8971 97.3621 12.898H98.1111C98.2196 12.898 98.3119 12.936 98.3879 13.012C98.4248 13.0479 98.4539 13.091 98.4735 13.1386C98.4931 13.1862 98.5028 13.2373 98.5019 13.2888V14.0052C98.9469 13.2671 99.7067 12.898 100.781 12.898H101.416C101.466 12.8961 101.515 12.9053 101.56 12.925C101.605 12.9448 101.645 12.9745 101.677 13.012C101.714 13.0439 101.744 13.084 101.764 13.1291C101.783 13.1743 101.793 13.2233 101.791 13.2725V13.94C101.793 13.9892 101.783 14.0383 101.764 14.0834C101.744 14.1285 101.714 14.1686 101.677 14.2005C101.642 14.2336 101.601 14.2594 101.557 14.2762C101.512 14.2929 101.464 14.3005 101.416 14.2982H100.439C99.8533 14.2982 99.3919 14.4719 99.0554 14.8193C98.7189 15.1557 98.5507 15.6171 98.5507 16.2032V20.9901C98.5507 21.0986 98.5127 21.1909 98.4367 21.2669C98.3597 21.3324 98.2611 21.3672 98.1599 21.3645H97.3621ZM106.4 21.5274C105.282 21.5274 104.387 21.1854 103.714 20.5016C103.052 19.8069 102.688 18.8626 102.623 17.6686L102.607 17.115L102.623 16.5777C102.699 15.4054 103.068 14.4719 103.73 13.7772C104.403 13.0825 105.288 12.7352 106.384 12.7352C107.589 12.7352 108.522 13.1205 109.185 13.8912C109.847 14.651 110.178 15.6822 110.178 16.9847V17.2615C110.178 17.3701 110.14 17.4623 110.064 17.5383C110.029 17.5714 109.988 17.5971 109.944 17.6139C109.899 17.6307 109.851 17.6382 109.803 17.636H104.17V17.7825C104.202 18.4881 104.414 19.0905 104.805 19.5898C105.206 20.0783 105.733 20.3225 106.384 20.3225C106.883 20.3225 107.29 20.2248 107.605 20.0294C107.931 19.8232 108.17 19.6115 108.322 19.3944C108.419 19.2642 108.49 19.1882 108.533 19.1665C108.588 19.1339 108.68 19.1177 108.81 19.1177H109.608C109.706 19.1177 109.787 19.1448 109.852 19.1991C109.885 19.227 109.911 19.2621 109.928 19.3016C109.944 19.3412 109.952 19.3841 109.95 19.427C109.95 19.6658 109.798 19.9535 109.494 20.2899C109.201 20.6264 108.783 20.9195 108.24 21.1692C107.708 21.408 107.095 21.5274 106.4 21.5274ZM108.631 16.5126V16.4637C108.631 15.7148 108.425 15.1069 108.012 14.6402C107.611 14.1626 107.068 13.9238 106.384 13.9238C105.7 13.9238 105.158 14.1626 104.756 14.6402C104.365 15.1069 104.17 15.7148 104.17 16.4637V16.5126H108.631ZM37.8204 31.3869C37.1882 31.3869 36.6988 31.2232 36.3514 30.8948C36.0086 30.562 35.8277 30.0627 35.8087 29.3969C35.8033 29.1919 35.8009 28.9869 35.8015 28.7818C35.8015 28.5168 35.8042 28.3142 35.8087 28.174C35.8277 27.5227 36.0168 27.0279 36.3732 26.6905C36.7305 26.3477 37.2126 26.1767 37.8204 26.1767C38.4238 26.1767 38.9032 26.3486 39.2605 26.6905C39.6178 27.0279 39.8059 27.5227 39.8249 28.174C39.8339 28.4544 39.8394 28.6561 39.8394 28.7818C39.8394 28.9021 39.8349 29.1075 39.8249 29.3969C39.8059 30.0627 39.6223 30.562 39.2749 30.8948C38.9321 31.2232 38.4473 31.3869 37.8204 31.3869ZM37.8204 30.7718C38.2012 30.7718 38.5052 30.656 38.7322 30.4245C38.9583 30.1929 39.0823 29.8383 39.1013 29.3607C39.1103 29.0713 39.1157 28.8786 39.1157 28.7818C39.1157 28.676 39.1112 28.4833 39.1013 28.2029C39.0823 27.7253 38.9565 27.3707 38.725 27.1392C38.4988 26.9076 38.1967 26.7918 37.8204 26.7918C37.4396 26.7918 37.133 26.9076 36.9014 27.1392C36.6753 27.3707 36.5514 27.7253 36.5324 28.2029C36.5278 28.3431 36.5251 28.5358 36.5251 28.7818C36.5251 29.0233 36.5278 29.216 36.5324 29.3607C36.5514 29.8383 36.6744 30.1929 36.9014 30.4245C37.133 30.656 37.4396 30.7718 37.8204 30.7718ZM40.9664 31.3145C40.9215 31.3157 40.8777 31.3002 40.8434 31.2711C40.8143 31.2369 40.7988 31.1931 40.8 31.1481V27.7253C40.8 27.6774 40.8145 27.6358 40.8434 27.6023C40.8594 27.5859 40.8785 27.5729 40.8997 27.5642C40.9208 27.5555 40.9436 27.5512 40.9664 27.5516H41.2993C41.3473 27.5516 41.3889 27.5688 41.4223 27.6023C41.4387 27.6182 41.4517 27.6374 41.4604 27.6585C41.4691 27.6797 41.4734 27.7024 41.473 27.7253V28.0437C41.6711 27.7154 42.0085 27.5516 42.4861 27.5516H42.7683C42.7902 27.5508 42.812 27.5549 42.832 27.5637C42.8521 27.5724 42.8699 27.5856 42.8841 27.6023C42.9007 27.6165 42.9139 27.6343 42.9227 27.6544C42.9315 27.6744 42.9356 27.6962 42.9347 27.7181V28.0148C42.9356 28.0366 42.9315 28.0584 42.9227 28.0785C42.9139 28.0985 42.9007 28.1163 42.8841 28.1305C42.8687 28.1453 42.8506 28.1567 42.8307 28.1642C42.8108 28.1716 42.7895 28.175 42.7683 28.174H42.3341C42.0736 28.174 41.8683 28.2508 41.719 28.4055C41.5698 28.5548 41.4947 28.7601 41.4947 29.0206V31.1481C41.4951 31.171 41.4908 31.1937 41.4821 31.2149C41.4734 31.236 41.4604 31.2552 41.444 31.2711C41.4098 31.3002 41.366 31.3157 41.321 31.3145H40.9664ZM46.192 32.6895C46.1691 32.6899 46.1464 32.6856 46.1252 32.6769C46.1041 32.6682 46.0849 32.6552 46.069 32.6388C46.0543 32.6235 46.0428 32.6053 46.0354 32.5854C46.0279 32.5655 46.0246 32.5442 46.0256 32.523V30.8442C45.7452 31.206 45.3553 31.3869 44.8533 31.3869C44.3522 31.3869 43.9732 31.2277 43.7172 30.9093C43.4621 30.5864 43.3264 30.1766 43.3119 29.6791L43.3047 29.4331L43.3119 29.1871C43.3264 28.685 43.4594 28.2753 43.7099 27.9569C43.9659 27.6385 44.3467 27.4793 44.8533 27.4793C45.3743 27.4793 45.7705 27.6647 46.04 28.0365V27.7181C46.04 27.6701 46.0545 27.6312 46.0835 27.6023C46.0994 27.5859 46.1186 27.5729 46.1397 27.5642C46.1609 27.5555 46.1836 27.5512 46.2065 27.5516H46.5393C46.5612 27.5508 46.583 27.5549 46.6031 27.5637C46.6231 27.5724 46.6409 27.5856 46.6551 27.6023C46.6718 27.6165 46.685 27.6343 46.6938 27.6544C46.7025 27.6744 46.7066 27.6962 46.7058 27.7181V32.523C46.7066 32.5449 46.7025 32.5667 46.6938 32.5867C46.685 32.6068 46.6718 32.6246 46.6551 32.6388C46.6409 32.6554 46.6231 32.6687 46.6031 32.6774C46.583 32.6862 46.5612 32.6903 46.5393 32.6895H46.192ZM45.0052 30.8008C45.3291 30.8008 45.5769 30.6949 45.7506 30.4824C45.9243 30.2698 46.0165 30.021 46.0256 29.737C46.0319 29.6431 46.0343 29.5489 46.0328 29.4548C46.0328 29.3191 46.031 29.2287 46.0256 29.1798C46.0185 28.8968 45.9223 28.6233 45.7506 28.3983C45.5869 28.1767 45.3381 28.0654 45.0052 28.0654C44.6633 28.0654 44.4119 28.1712 44.2527 28.3838C44.0989 28.5964 44.0139 28.8759 43.9994 29.2232L43.9921 29.4331C43.9921 30.3449 44.3304 30.8008 45.0052 30.8008ZM48.8315 31.3869C48.5954 31.3869 48.3756 31.339 48.173 31.2422C47.9812 31.1545 47.8145 31.0201 47.6881 30.8514C47.5741 30.6881 47.5134 30.4934 47.5144 30.2942C47.5144 29.9758 47.6447 29.7153 47.9052 29.5127C48.1702 29.3046 48.5275 29.1699 48.9762 29.1075L50.0544 28.9555V28.7456C50.0544 28.2536 49.7722 28.0075 49.2078 28.0075C48.9952 28.0075 48.8215 28.0528 48.6867 28.145C48.5613 28.222 48.4568 28.3289 48.3828 28.4562C48.3729 28.4924 48.3528 28.5251 48.3249 28.5503C48.3059 28.5692 48.277 28.5792 48.2381 28.5792H47.9269C47.8843 28.5795 47.8431 28.564 47.8111 28.5358C47.7829 28.5039 47.7674 28.4626 47.7677 28.42C47.7722 28.3042 47.8256 28.174 47.9269 28.0292C48.0538 27.8628 48.2205 27.7309 48.4118 27.6457C48.6288 27.5344 48.8966 27.4793 49.215 27.4793C49.755 27.4793 50.1431 27.6068 50.38 27.8628C50.6161 28.1134 50.7346 28.4272 50.7346 28.8035V31.1481C50.735 31.171 50.7308 31.1937 50.722 31.2149C50.7133 31.236 50.7004 31.2552 50.684 31.2711C50.6686 31.2858 50.6505 31.2973 50.6306 31.3048C50.6106 31.3122 50.5894 31.3155 50.5682 31.3145H50.2353C50.1904 31.3157 50.1466 31.3002 50.1123 31.2711C50.0832 31.2369 50.0677 31.1931 50.0689 31.1481V30.8369C49.963 30.9907 49.8084 31.1219 49.6058 31.2277C49.4031 31.3335 49.1444 31.3869 48.8315 31.3869ZM48.9834 30.8442C49.2964 30.8442 49.5533 30.7429 49.7505 30.5403C49.9531 30.3322 50.0544 30.0364 50.0544 29.6502V29.4476L49.215 29.5706C48.8722 29.6185 48.6144 29.7008 48.4407 29.8166C48.267 29.9279 48.1802 30.0699 48.1802 30.2436C48.1802 30.4362 48.2598 30.5864 48.419 30.6922C48.5782 30.7935 48.7663 30.8442 48.9834 30.8442ZM51.9485 31.3145C51.9036 31.3157 51.8598 31.3002 51.8255 31.2711C51.7964 31.2369 51.7809 31.1931 51.7821 31.1481V26.3432C51.7821 26.2952 51.7966 26.2563 51.8255 26.2274C51.8415 26.211 51.8606 26.198 51.8818 26.1893C51.9029 26.1806 51.9256 26.1763 51.9485 26.1767H52.2886C52.3105 26.1759 52.3323 26.18 52.3523 26.1887C52.3724 26.1975 52.3902 26.2107 52.4044 26.2274C52.4211 26.2416 52.4343 26.2594 52.443 26.2794C52.4518 26.2995 52.4559 26.3213 52.4551 26.3432V31.1481C52.4555 31.171 52.4512 31.1937 52.4425 31.2149C52.4338 31.236 52.4208 31.2552 52.4044 31.2711C52.3891 31.2858 52.3709 31.2973 52.351 31.3048C52.3311 31.3122 52.3099 31.3155 52.2886 31.3145H51.9485ZM53.6427 26.8497C53.5978 26.8509 53.554 26.8354 53.5197 26.8063C53.4906 26.772 53.4751 26.7282 53.4763 26.6833V26.2925C53.4763 26.2446 53.4908 26.203 53.5197 26.1695C53.5357 26.1531 53.5548 26.1401 53.576 26.1314C53.5971 26.1227 53.6199 26.1184 53.6427 26.1188H54.0986C54.1475 26.1188 54.1882 26.136 54.2216 26.1695C54.2381 26.1854 54.251 26.2046 54.2597 26.2257C54.2684 26.2469 54.2727 26.2696 54.2723 26.2925V26.6833C54.2727 26.7061 54.2684 26.7289 54.2597 26.75C54.251 26.7712 54.2381 26.7903 54.2216 26.8063C54.1874 26.8354 54.1436 26.8509 54.0986 26.8497H53.6427ZM53.7006 31.3145C53.6557 31.3157 53.6119 31.3002 53.5776 31.2711C53.5485 31.2369 53.533 31.1931 53.5342 31.1481V27.7181C53.5342 27.6701 53.5487 27.6312 53.5776 27.6023C53.5936 27.5859 53.6127 27.5729 53.6339 27.5642C53.655 27.5555 53.6778 27.5512 53.7006 27.5516H54.048C54.0699 27.5508 54.0916 27.5549 54.1117 27.5637C54.1317 27.5724 54.1495 27.5856 54.1638 27.6023C54.1804 27.6165 54.1936 27.6343 54.2024 27.6544C54.2112 27.6744 54.2153 27.6962 54.2144 27.7181V31.1481C54.2148 31.171 54.2105 31.1937 54.2018 31.2149C54.1931 31.236 54.1802 31.2552 54.1638 31.2711C54.1484 31.2858 54.1302 31.2973 54.1103 31.3048C54.0904 31.3122 54.0692 31.3155 54.048 31.3145H53.7006ZM57.5214 32.6895C57.5025 32.6895 57.4837 32.6857 57.4663 32.6783C57.4488 32.6708 57.4331 32.6598 57.4201 32.646C57.4063 32.633 57.3954 32.6173 57.3879 32.5999C57.3804 32.5825 57.3766 32.5637 57.3767 32.5447C57.3767 32.5113 57.3885 32.4678 57.4129 32.4145L57.9701 31.0902L56.5879 27.8266C56.5702 27.7875 56.5581 27.7461 56.5518 27.7036C56.5511 27.6835 56.5546 27.6634 56.562 27.6447C56.5695 27.626 56.5806 27.609 56.5949 27.5947C56.6091 27.5805 56.6261 27.5693 56.6448 27.5619C56.6636 27.5545 56.6836 27.551 56.7037 27.5516H57.0583C57.1352 27.5516 57.194 27.5923 57.232 27.6747L58.3319 30.3087L59.4608 27.6747C59.4997 27.5932 59.5603 27.5516 59.6417 27.5516H59.9818C60.0252 27.5516 60.0614 27.5661 60.0903 27.5951C60.1193 27.624 60.1338 27.6584 60.1338 27.6964C60.126 27.7409 60.1139 27.7845 60.0976 27.8266L58.0425 32.5664C58.0036 32.6478 57.9429 32.6895 57.8615 32.6895H57.5214ZM62.2594 31.3869C61.8008 31.3869 61.4463 31.2395 61.1957 30.9455C60.9451 30.647 60.8194 30.2508 60.8194 29.7587V27.7181C60.8194 27.6701 60.8339 27.6312 60.8628 27.6023C60.8788 27.5859 60.8979 27.5729 60.9191 27.5642C60.9402 27.5555 60.963 27.5512 60.9858 27.5516H61.3477C61.3695 27.5508 61.3913 27.5549 61.4114 27.5637C61.4314 27.5724 61.4492 27.5856 61.4634 27.6023C61.4801 27.6165 61.4933 27.6343 61.5021 27.6544C61.5108 27.6744 61.515 27.6962 61.5141 27.7181V29.7225C61.5141 30.4417 61.828 30.8008 62.4548 30.8008C62.7587 30.8008 63.0003 30.7067 63.1785 30.5185C63.3567 30.3259 63.4462 30.0599 63.4462 29.7225V27.7181C63.4462 27.6701 63.4607 27.6312 63.4896 27.6023C63.5056 27.5859 63.5247 27.5729 63.5459 27.5642C63.567 27.5555 63.5898 27.5512 63.6126 27.5516H63.9745C63.9963 27.5508 64.0181 27.5549 64.0382 27.5637C64.0582 27.5724 64.076 27.5856 64.0902 27.6023C64.105 27.6176 64.1164 27.6358 64.1239 27.6557C64.1313 27.6756 64.1347 27.6968 64.1337 27.7181V31.1481C64.1348 31.1931 64.1194 31.2369 64.0902 31.2711C64.0749 31.2858 64.0567 31.2973 64.0368 31.3048C64.0169 31.3122 63.9957 31.3155 63.9745 31.3145H63.6343C63.5894 31.3157 63.5456 31.3002 63.5113 31.2711C63.4822 31.2369 63.4668 31.1931 63.4679 31.1481V30.8297C63.3399 31.007 63.1711 31.1509 62.9758 31.2494C62.7832 31.3408 62.5444 31.3869 62.2594 31.3869ZM65.3828 31.3145C65.3379 31.3157 65.2941 31.3002 65.2598 31.2711C65.2304 31.237 65.2146 31.1932 65.2155 31.1481V26.3432C65.2155 26.2952 65.2309 26.2563 65.2598 26.2274C65.2757 26.2111 65.2947 26.1982 65.3157 26.1895C65.3367 26.1808 65.3592 26.1764 65.3819 26.1767H65.7229C65.7447 26.176 65.7663 26.1802 65.7862 26.1889C65.8061 26.1977 65.8237 26.2109 65.8378 26.2274C65.8545 26.2416 65.8677 26.2594 65.8765 26.2794C65.8852 26.2995 65.8893 26.3213 65.8885 26.3432V28.8614L67.314 27.6747C67.3391 27.6566 67.3633 27.6373 67.3864 27.6168C67.4154 27.5953 67.4474 27.5782 67.4814 27.5661C67.5215 27.5557 67.5629 27.5508 67.6044 27.5516H67.987C68.0071 27.551 68.0272 27.5545 68.0459 27.5619C68.0646 27.5693 68.0816 27.5805 68.0959 27.5947C68.1101 27.609 68.1213 27.626 68.1287 27.6447C68.1361 27.6634 68.1396 27.6835 68.139 27.7036C68.139 27.757 68.1109 27.8031 68.0522 27.8411L66.3815 29.2305L68.2331 31.0323C68.2919 31.0803 68.3208 31.1237 68.3208 31.1626C68.3214 31.1828 68.3179 31.2029 68.3104 31.2217C68.303 31.2405 68.2917 31.2575 68.2774 31.2718C68.263 31.286 68.2459 31.2972 68.2271 31.3045C68.2083 31.3119 68.1881 31.3153 68.1679 31.3145H67.7925C67.7383 31.3175 67.684 31.3101 67.6324 31.2928C67.5854 31.2644 67.542 31.2304 67.5031 31.1915L65.8894 29.6502V31.1481C65.8898 31.171 65.8855 31.1937 65.8768 31.2149C65.8681 31.236 65.8551 31.2552 65.8387 31.2711C65.8233 31.286 65.805 31.2975 65.7849 31.3049C65.7648 31.3124 65.7434 31.3157 65.722 31.3145H65.3828ZM69.1132 31.3145C69.0685 31.3155 69.0251 31.3 68.9911 31.2711C68.9616 31.237 68.9458 31.1932 68.9467 31.1481V26.3432C68.9467 26.2952 68.9621 26.2563 68.9911 26.2274C69.0069 26.2111 69.0259 26.1982 69.0469 26.1895C69.0679 26.1808 69.0905 26.1764 69.1132 26.1767H69.4542C69.4759 26.176 69.4975 26.1802 69.5174 26.1889C69.5373 26.1977 69.555 26.2109 69.5691 26.2274C69.5857 26.2416 69.5989 26.2594 69.6077 26.2794C69.6165 26.2995 69.6206 26.3213 69.6197 26.3432V31.1481C69.6203 31.1709 69.6161 31.1936 69.6076 31.2148C69.599 31.2359 69.5862 31.2551 69.57 31.2711C69.5545 31.286 69.5362 31.2975 69.5161 31.3049C69.4961 31.3124 69.4747 31.3157 69.4533 31.3145H69.1132ZM71.749 31.3869C71.5214 31.3889 71.2963 31.3394 71.0905 31.2422C70.8988 31.1545 70.7321 31.0202 70.6057 30.8514C70.4916 30.6881 70.431 30.4934 70.432 30.2942C70.432 29.9758 70.5623 29.7153 70.8228 29.5127C71.0878 29.3046 71.4451 29.1699 71.8938 29.1075L72.972 28.9555V28.7456C72.972 28.2536 72.6898 28.0075 72.1253 28.0075C71.9128 28.0075 71.7391 28.0528 71.6043 28.145C71.4788 28.2219 71.3743 28.3289 71.3004 28.4562C71.2904 28.4924 71.2703 28.525 71.2425 28.5503C71.2226 28.5692 71.1936 28.5792 71.1556 28.5792H70.8445C70.8019 28.5795 70.7606 28.564 70.7287 28.5358C70.7004 28.5039 70.685 28.4626 70.6853 28.42C70.6898 28.3042 70.7432 28.174 70.8445 28.0292C70.9714 27.8628 71.1381 27.7309 71.3293 27.6457C71.5464 27.5344 71.8142 27.4793 72.1326 27.4793C72.6726 27.4793 73.0606 27.6068 73.2976 27.8628C73.5337 28.1134 73.6522 28.4272 73.6522 28.8035V31.1481C73.6526 31.171 73.6483 31.1937 73.6396 31.2149C73.6309 31.236 73.6179 31.2552 73.6015 31.2711C73.5862 31.2858 73.568 31.2973 73.5481 31.3048C73.5282 31.3122 73.507 31.3155 73.4858 31.3145H73.1529C73.1079 31.3157 73.0641 31.3002 73.0299 31.2711C73.0007 31.2369 72.9853 31.1931 72.9864 31.1481V30.8369C72.8662 31.003 72.7072 31.1372 72.5233 31.2277C72.3207 31.3335 72.062 31.3869 71.749 31.3869ZM71.901 30.8442C72.214 30.8442 72.4709 30.7429 72.668 30.5403C72.8707 30.3322 72.972 30.0364 72.972 29.6502V29.4476L72.1326 29.5706C71.7897 29.6185 71.5319 29.7008 71.3583 29.8166C71.1846 29.9279 71.0978 30.0699 71.0978 30.2436C71.0978 30.4362 71.1774 30.5864 71.3366 30.6922C71.4958 30.7935 71.6839 30.8442 71.901 30.8442ZM75.995 31.3869C75.6576 31.3869 75.3726 31.3335 75.1411 31.2277C74.9453 31.1398 74.7702 31.0116 74.6273 30.8514C74.516 30.7112 74.4609 30.5954 74.4609 30.5041C74.4597 30.4832 74.4637 30.4624 74.4725 30.4434C74.4814 30.4245 74.4948 30.408 74.5115 30.3955C74.5443 30.3687 74.585 30.3535 74.6273 30.3521H74.9529C75.0009 30.3521 75.0443 30.3765 75.0832 30.4245C75.199 30.5602 75.3238 30.666 75.4595 30.7429C75.5952 30.8198 75.7761 30.8586 76.0022 30.8586C76.2528 30.8586 76.4554 30.8107 76.6101 30.7139C76.6832 30.6729 76.7439 30.613 76.7859 30.5404C76.828 30.4678 76.8497 30.3853 76.8489 30.3015C76.8533 30.1978 76.8169 30.0965 76.7475 30.0192C76.6842 29.9423 76.5739 29.8772 76.4147 29.8239C76.1875 29.7458 75.9555 29.683 75.72 29.6357C75.3003 29.5443 75.0009 29.4114 74.8227 29.2377C74.649 29.064 74.5622 28.8397 74.5622 28.5647C74.5622 28.3811 74.6155 28.2074 74.7214 28.0437C74.8326 27.8746 74.9918 27.7398 75.199 27.6385C75.4364 27.5269 75.6966 27.4724 75.9588 27.4793C76.2672 27.4793 76.5305 27.5299 76.7475 27.6312C76.9646 27.7325 77.1265 27.8528 77.2324 27.9931C77.3436 28.1287 77.3988 28.2418 77.3988 28.3332C77.3992 28.3539 77.3948 28.3745 77.386 28.3933C77.3772 28.4121 77.3643 28.4287 77.3482 28.4417C77.334 28.456 77.317 28.4672 77.2984 28.4746C77.2797 28.4821 77.2597 28.4857 77.2396 28.4851H76.9357C76.9076 28.4853 76.8798 28.4789 76.8546 28.4663C76.8295 28.4537 76.8077 28.4354 76.791 28.4128C76.7295 28.3372 76.6617 28.267 76.5883 28.2029C76.5195 28.1405 76.4381 28.0936 76.3495 28.0654C76.2238 28.023 76.0914 28.0034 75.9588 28.0075C75.7272 28.0075 75.549 28.0582 75.4233 28.1595C75.3633 28.2035 75.3148 28.2613 75.282 28.3281C75.2493 28.3949 75.2332 28.4686 75.2351 28.543C75.2351 28.6443 75.2623 28.7312 75.3147 28.8035C75.3672 28.8714 75.4685 28.9338 75.6187 28.9917C75.7724 29.0496 75.995 29.1093 76.2844 29.1726C76.743 29.2694 77.0659 29.4087 77.2541 29.5923C77.4468 29.7705 77.5435 29.9993 77.5435 30.2797C77.5435 30.4878 77.4829 30.675 77.3626 30.8442C77.2423 31.0133 77.0641 31.1454 76.8271 31.2422C76.5956 31.339 76.3179 31.3869 75.995 31.3869ZM78.5548 31.3145C78.5099 31.3157 78.4661 31.3002 78.4318 31.2711C78.4027 31.2369 78.3872 31.1931 78.3884 31.1481V26.3432C78.3884 26.2952 78.4029 26.2563 78.4318 26.2274C78.4478 26.211 78.4669 26.198 78.4881 26.1893C78.5092 26.1806 78.532 26.1763 78.5548 26.1767H78.9166C78.9385 26.1759 78.9603 26.18 78.9804 26.1887C79.0004 26.1975 79.0182 26.2107 79.0324 26.2274C79.0491 26.2416 79.0623 26.2594 79.0711 26.2794C79.0798 26.2995 79.0839 26.3213 79.0831 26.3432V28.0292C79.2233 27.851 79.387 27.7154 79.5752 27.624C79.7633 27.5272 79.9976 27.4793 80.2771 27.4793C80.7402 27.4793 81.1002 27.6285 81.3553 27.9279C81.6158 28.2219 81.7461 28.6154 81.7461 29.1075V31.1481C81.7465 31.171 81.7422 31.1937 81.7335 31.2149C81.7248 31.236 81.7118 31.2552 81.6954 31.2711C81.6801 31.2858 81.6619 31.2973 81.642 31.3048C81.6221 31.3122 81.6009 31.3155 81.5796 31.3145H81.2178C81.1729 31.3157 81.1291 31.3002 81.0948 31.2711C81.0657 31.2369 81.0502 31.1931 81.0514 31.1481V29.1436C81.0514 28.8008 80.9672 28.5358 80.7981 28.3476C80.6344 28.1595 80.3956 28.0654 80.0817 28.0654C79.7778 28.0654 79.5345 28.1622 79.3508 28.3549C79.1726 28.543 79.0831 28.8062 79.0831 29.1436V31.1481C79.0835 31.171 79.0792 31.1937 79.0705 31.2149C79.0618 31.236 79.0488 31.2552 79.0324 31.2711C79.0171 31.2858 78.9989 31.2973 78.979 31.3048C78.9591 31.3122 78.9379 31.3155 78.9166 31.3145H78.5548Z" fill="white"/>
<mask id="mask0_3_2687" style="mask-type:luminance" maskUnits="userSpaceOnUse" x="9" y="9" width="23" height="24">
<path d="M9.06128 9.60547H31.6749V32.2191H9.06128V9.60547Z" fill="white"/>
</mask>
<g mask="url(#mask0_3_2687)">
<path d="M15.7304 31.7958C15.2848 31.4991 14.8899 31.1326 14.5609 30.7103C14.199 30.2743 13.8625 29.8175 13.5559 29.3408C12.835 28.285 12.2696 27.1311 11.8771 25.9144C11.4067 24.5006 11.1779 23.1465 11.1779 21.8214C11.1779 20.3415 11.4981 19.0498 12.124 17.9644C12.5881 17.1161 13.2705 16.4072 14.1004 15.9111C14.9049 15.4114 15.8293 15.1379 16.7761 15.1196C17.1072 15.1196 17.4635 15.1675 17.8435 15.2589C18.1148 15.3358 18.4468 15.4579 18.8511 15.6089C19.3667 15.8079 19.6498 15.9291 19.7466 15.959C20.0478 16.0694 20.302 16.1173 20.501 16.1173C20.6521 16.1173 20.8655 16.0694 21.108 15.9952C21.2436 15.9472 21.5014 15.8631 21.8696 15.7057C22.2341 15.5719 22.5209 15.4588 22.7497 15.3738C23.0998 15.2706 23.4372 15.1748 23.7393 15.1268C24.097 15.0705 24.46 15.0556 24.8211 15.0825C25.4471 15.1233 26.0636 15.2559 26.651 15.476C27.6116 15.8631 28.3877 16.4664 28.9666 17.324C28.7224 17.475 28.4927 17.6487 28.281 17.8423C27.8215 18.2502 27.4307 18.7287 27.1214 19.2597C26.7185 19.9855 26.5097 20.8031 26.5153 21.6332C26.5298 22.6526 26.7912 23.5508 27.3059 24.3288C27.685 24.904 28.1775 25.3958 28.7532 25.7742C29.0472 25.9732 29.3013 26.1089 29.5447 26.2012C29.4307 26.5539 29.3095 26.8968 29.1647 27.236C28.84 27.9958 28.4456 28.7258 27.987 29.415C27.5791 30.0075 27.2589 30.4489 27.0155 30.7429C26.6365 31.1915 26.272 31.5344 25.9039 31.7741C25.4976 32.0426 25.0214 32.1858 24.5344 32.1856C24.2052 32.1984 23.876 32.1587 23.5593 32.068C23.2867 31.9767 23.0179 31.8747 22.7533 31.7623C22.4778 31.6358 22.1936 31.5288 21.9031 31.4421C21.1849 31.2576 20.4319 31.2564 19.7131 31.4385C19.4207 31.5213 19.1339 31.6232 18.8547 31.7433C18.4613 31.9088 18.1998 32.0201 18.0488 32.0671C17.7454 32.1565 17.4328 32.2111 17.1171 32.23C16.6277 32.23 16.1709 32.0889 15.7187 31.8057L15.7304 31.7958ZM22.1898 14.4014C21.5494 14.7216 20.9388 14.8582 20.331 14.8129C20.236 14.2024 20.331 13.5764 20.5842 12.8917C20.8004 12.3115 21.1197 11.7752 21.5268 11.3087C21.9565 10.8177 22.4779 10.4152 23.0618 10.1238C23.6841 9.80356 24.2766 9.6308 24.8437 9.60547C24.9161 10.245 24.8437 10.8745 24.6085 11.5557C24.3906 12.1572 24.0718 12.7173 23.666 13.2119C23.2517 13.704 22.7434 14.1074 22.1717 14.4005H22.1898V14.4014Z" fill="white"/>
</g>
</g>
<defs>
<clipPath id="clip0_3_2687">
<rect width="132.968" height="39.8" fill="white" transform="translate(0.0158691 0.560059)"/>
</clipPath>
</defs>
</svg>
