<svg width="134" height="33" viewBox="0 0 134 33" fill="none" xmlns="http://www.w3.org/2000/svg">
<g clip-path="url(#clip0_3_2818)">
<path d="M2.367 25.32C6.195 17.017 9.966 8.795 13.809 0.5H20.236C16.93 7.644 13.874 14.475 10.581 21.624C7.737 22.311 4.764 23.617 2.367 25.32ZM29.02 32.15C25.487 24.479 21.96 16.807 18.426 9.138C19.506 6.818 20.533 4.473 21.653 2.173C25.866 11.346 30.083 20.517 34.318 29.678C32.575 30.546 30.784 31.321 29.021 32.149L29.02 32.15ZM0 29.92C6.269 23.625 13.787 21.417 22.554 23.297C23.619 25.692 24.819 28.048 25.883 30.445C23.6296 29.277 21.1572 28.5924 18.624 28.435C14.854 28.145 10.913 28.781 7.644 30.757C6.893 31.252 6.044 31.77 5.499 32.5C2.67 31.152 0.835 30.292 0 29.92Z" fill="#008DFF"/>
<path fill-rule="evenodd" clip-rule="evenodd" d="M18.414 13.454L20.993 19.074C21.0925 19.2912 21.1314 19.5313 21.1057 19.7688C21.0799 20.0064 20.9904 20.2325 20.8466 20.4233C20.7028 20.6141 20.5101 20.7625 20.2889 20.8528C20.0677 20.943 19.8262 20.9718 19.59 20.936C18.682 20.7899 17.7653 20.7053 16.846 20.683C16.053 20.67 15.288 20.703 14.552 20.783C14.3808 20.8013 14.2079 20.7739 14.0508 20.7037C13.8937 20.6334 13.7579 20.5229 13.6574 20.3832C13.5568 20.2435 13.495 20.0798 13.4783 19.9085C13.4615 19.7372 13.4904 19.5645 13.562 19.408L16.262 13.458C16.3557 13.2516 16.5068 13.0764 16.6973 12.9534C16.8878 12.8304 17.1096 12.7647 17.3363 12.7642C17.5631 12.7636 17.7852 12.8283 17.9763 12.9504C18.1673 13.0725 18.3192 13.247 18.414 13.453V13.454Z" fill="#008DFF" fill-opacity="0.5"/>
<path d="M58.8999 9.34998V24.343H54.9389V23.171C53.5989 24.253 51.9489 24.794 49.9889 24.794C48.0089 24.794 46.2889 24.043 44.8289 22.54C43.3679 21.038 42.6379 19.145 42.6379 16.861C42.6379 14.578 43.3729 12.68 44.8429 11.167C46.3129 9.65498 48.0279 8.89898 49.9879 8.89898C51.9679 8.89898 53.6179 9.44898 54.9379 10.551V9.34998H58.8999ZM50.6789 21.338C51.7989 21.338 52.7889 20.923 53.6489 20.091C54.5089 19.26 54.9389 18.183 54.9389 16.861C54.9389 15.539 54.5089 14.457 53.6489 13.616C52.7889 12.775 51.7989 12.354 50.6789 12.354C49.4589 12.354 48.4529 12.764 47.6629 13.586C46.8729 14.407 46.4779 15.499 46.4779 16.861C46.4779 18.223 46.8729 19.311 47.6629 20.121C48.4529 20.933 49.4579 21.338 50.6789 21.338ZM60.4439 20.377L64.4339 19.566C64.6139 20.928 65.6439 21.609 67.5239 21.609C68.2439 21.609 68.8139 21.469 69.2339 21.189C69.6549 20.908 69.8649 20.547 69.8649 20.106C69.8649 19.446 69.3149 18.995 68.2149 18.754L65.1549 18.124C63.7949 17.843 62.7489 17.332 62.0189 16.591C61.2889 15.85 60.9239 14.938 60.9239 13.856C60.9239 12.394 61.4789 11.202 62.5899 10.281C63.6999 9.35898 65.1849 8.89798 67.0449 8.89798C68.7849 8.89798 70.2399 9.30898 71.4099 10.13C72.5799 10.952 73.2949 12.023 73.5549 13.346L69.7749 14.096C69.7405 13.7977 69.6439 13.5099 69.4915 13.2513C69.3391 12.9926 69.1342 12.7687 68.8899 12.594C68.3799 12.214 67.7249 12.024 66.9249 12.024C66.2049 12.024 65.6849 12.169 65.3649 12.459C65.0449 12.749 64.8849 13.095 64.8849 13.496C64.8849 14.136 65.3349 14.557 66.2349 14.758L69.8049 15.539C71.0849 15.819 72.0599 16.335 72.7299 17.087C73.3999 17.837 73.7349 18.734 73.7349 19.776C73.7349 21.398 73.1399 22.64 71.9499 23.502C70.7599 24.363 69.1649 24.794 67.1649 24.794C65.3849 24.794 63.8649 24.428 62.6049 23.697C61.3449 22.966 60.6239 21.859 60.4439 20.377ZM91.2969 9.34898V24.343H87.3369V23.171C85.9969 24.253 84.3469 24.794 82.3869 24.794C80.4069 24.794 78.6859 24.043 77.2259 22.54C75.7659 21.038 75.0359 19.145 75.0359 16.861C75.0359 14.578 75.7709 12.68 77.2409 11.167C78.7099 9.65498 80.4259 8.89998 82.3859 8.89998C84.3659 8.89998 86.0159 9.44998 87.3359 10.552V9.34998H91.2959L91.2969 9.34898ZM83.0769 21.339C84.1969 21.339 85.1869 20.923 86.0469 20.091C86.9069 19.26 87.3369 18.183 87.3369 16.861C87.3369 15.539 86.9069 14.457 86.0469 13.616C85.1869 12.775 84.1969 12.354 83.0769 12.354C81.8569 12.354 80.8509 12.764 80.0609 13.586C79.2709 14.407 78.8759 15.499 78.8759 16.861C78.8759 18.223 79.2709 19.311 80.0609 20.121C80.8509 20.933 81.8559 21.338 83.0759 21.338L83.0769 21.339ZM104.211 17.042L109.251 24.343H104.541L101.27 19.596L98.0299 24.343H93.3199L98.3599 17.041L93.3199 9.31898H98.0299L101.27 14.367L104.541 9.31898H109.251L104.211 17.042ZM115.444 24.343H111.484V9.34998H115.444V24.343ZM121.487 9.31898L125.448 18.904L129.588 9.31898H133.998L126.384 26.923L125.298 29.451H120.887L121.967 26.937L123.288 23.862L117.077 9.31898H121.487ZM113.464 2.88898C114.154 2.88998 114.733 3.12798 115.2 3.60398C115.667 4.07998 115.9 4.64198 115.9 5.29098C115.9 5.95898 115.667 6.51598 115.2 6.96198C114.733 7.40798 114.154 7.63098 113.464 7.63098C112.753 7.63098 112.17 7.40798 111.713 6.96198C111.256 6.51598 111.028 5.95898 111.028 5.29098C111.028 4.64198 111.261 4.08098 111.728 3.60398C112.195 3.12798 112.774 2.88998 113.464 2.88998V2.88898Z" fill="#13306A"/>
</g>
<defs>
<clipPath id="clip0_3_2818">
<rect width="134" height="32" fill="white" transform="translate(0 0.5)"/>
</clipPath>
</defs>
</svg>
