<svg width="29" height="31" viewBox="0 0 29 31" fill="none" xmlns="http://www.w3.org/2000/svg">
<rect x="0.950058" y="0.589966" width="28" height="29.5" rx="8" fill="#008DFF"/>
<g clip-path="url(#clip0_3_226)">
<path d="M6.45006 9.19279C6.45006 8.83775 6.77628 8.54993 7.17868 8.54993H7.72102C8.6444 8.54993 9.19727 9.09764 9.51342 9.60678C9.72414 9.94616 9.87659 10.3398 9.99583 10.6962C10.0281 10.6939 10.0608 10.6928 10.0939 10.6928H22.235C23.0415 10.6928 23.6239 11.3737 23.4028 12.058L21.6271 17.5516C21.2999 18.5641 20.2513 19.2623 19.058 19.2623H13.2794C12.0762 19.2623 11.0215 18.5527 10.7031 17.529L9.96428 15.1538L8.74156 11.512L8.73958 11.5056C8.58831 11.0189 8.44635 10.5643 8.2354 10.2245C8.03054 9.89462 7.86724 9.83564 7.72102 9.83564H7.17868C6.77628 9.83564 6.45006 9.54782 6.45006 9.19279Z" fill="white"/>
<path d="M12.7649 23.5499C13.838 23.5499 14.7079 22.7824 14.7079 21.8356C14.7079 20.8888 13.838 20.1213 12.7649 20.1213C11.6918 20.1213 10.8219 20.8888 10.8219 21.8356C10.8219 22.7824 11.6918 23.5499 12.7649 23.5499Z" fill="white"/>
<path d="M19.5652 23.5499C20.6383 23.5499 21.5082 22.7824 21.5082 21.8356C21.5082 20.8888 20.6383 20.1213 19.5652 20.1213C18.4921 20.1213 17.6222 20.8888 17.6222 21.8356C17.6222 22.7824 18.4921 23.5499 19.5652 23.5499Z" fill="white"/>
</g>
<defs>
<clipPath id="clip0_3_226">
<rect width="18" height="16" fill="white" transform="translate(5.95006 8.04993)"/>
</clipPath>
</defs>
</svg>
