<svg width="18" height="18" viewBox="0 0 18 18" fill="none" xmlns="http://www.w3.org/2000/svg">
<path d="M5.38 15.2207C5.38 16.627 4.24719 17.7207 2.88 17.7207C1.47375 17.7207 0.380005 16.627 0.380005 15.2207C0.380005 13.8535 1.47375 12.7207 2.88 12.7207C4.24719 12.7207 5.38 13.8535 5.38 15.2207ZM12.2159 17.0957C12.255 17.4473 11.9425 17.7207 11.5909 17.7207H9.71594C9.40344 17.7207 9.13 17.4863 9.09094 17.1738C8.8175 12.7988 5.30188 9.2832 0.92688 9.00977C0.61438 8.9707 0.380005 8.69727 0.380005 8.38477V6.50977C0.380005 6.1582 0.653442 5.8457 1.005 5.88477C7.05969 6.19727 11.9034 11.041 12.2159 17.0957ZM17.8409 17.0957C17.88 17.4473 17.6066 17.7207 17.2159 17.7598H15.3409C15.0284 17.7598 14.755 17.4863 14.7159 17.1348C14.4425 9.67383 8.42688 3.6582 0.965942 3.38477C0.61438 3.3457 0.380005 3.07227 0.380005 2.75977V0.884766C0.380005 0.494141 0.653442 0.220703 1.005 0.259766C10.1847 0.572266 17.5284 7.95508 17.8409 17.0957Z" fill="#64748B"/>
</svg>
