<svg width="22" height="16" viewBox="0 0 22 16" fill="none" xmlns="http://www.w3.org/2000/svg">
<path d="M21.3253 2.85352C21.7941 4.49414 21.7941 8.00977 21.7941 8.00977C21.7941 8.00977 21.7941 11.4863 21.3253 13.166C21.0909 14.1035 20.3488 14.8066 19.4503 15.041C17.7706 15.4707 11.13 15.4707 11.13 15.4707C11.13 15.4707 4.45032 15.4707 2.77063 15.041C1.87219 14.8066 1.13 14.1035 0.89563 13.166C0.42688 11.4863 0.42688 8.00977 0.42688 8.00977C0.42688 8.00977 0.42688 4.49414 0.89563 2.85352C1.13 1.91602 1.87219 1.17383 2.77063 0.939453C4.45032 0.470703 11.13 0.470703 11.13 0.470703C11.13 0.470703 17.7706 0.470703 19.4503 0.939453C20.3488 1.17383 21.0909 1.91602 21.3253 2.85352ZM8.9425 11.1738L14.4894 8.00977L8.9425 4.8457V11.1738Z" fill="#64748B"/>
</svg>
