<svg width="18" height="18" viewBox="0 0 18 18" fill="none" xmlns="http://www.w3.org/2000/svg">
<path d="M9.13 4.47852C11.5909 4.47852 13.6222 6.50977 13.6222 8.9707C13.6222 11.4707 11.5909 13.4629 9.13 13.4629C6.63 13.4629 4.63782 11.4707 4.63782 8.9707C4.63782 6.50977 6.63 4.47852 9.13 4.47852ZM9.13 11.9004C10.7316 11.9004 12.0206 10.6113 12.0206 8.9707C12.0206 7.36914 10.7316 6.08008 9.13 6.08008C7.48938 6.08008 6.20032 7.36914 6.20032 8.9707C6.20032 10.6113 7.52844 11.9004 9.13 11.9004ZM14.8331 4.32227C14.8331 4.9082 14.3644 5.37695 13.7784 5.37695C13.1925 5.37695 12.7238 4.9082 12.7238 4.32227C12.7238 3.73633 13.1925 3.26758 13.7784 3.26758C14.3644 3.26758 14.8331 3.73633 14.8331 4.32227ZM17.8019 5.37695C17.88 6.82227 17.88 11.1582 17.8019 12.6035C17.7238 14.0098 17.4113 15.2207 16.3956 16.2754C15.38 17.291 14.13 17.6035 12.7238 17.6816C11.2784 17.7598 6.9425 17.7598 5.49719 17.6816C4.09094 17.6035 2.88 17.291 1.82532 16.2754C0.809692 15.2207 0.497192 14.0098 0.419067 12.6035C0.340942 11.1582 0.340942 6.82227 0.419067 5.37695C0.497192 3.9707 0.809692 2.7207 1.82532 1.70508C2.88 0.689453 4.09094 0.376953 5.49719 0.298828C6.9425 0.220703 11.2784 0.220703 12.7238 0.298828C14.13 0.376953 15.38 0.689453 16.3956 1.70508C17.4113 2.7207 17.7238 3.9707 17.8019 5.37695ZM15.9269 14.127C16.3956 12.9941 16.2784 10.2598 16.2784 8.9707C16.2784 7.7207 16.3956 4.98633 15.9269 3.81445C15.6144 3.07227 15.0284 2.44727 14.2863 2.17383C13.1144 1.70508 10.38 1.82227 9.13 1.82227C7.84094 1.82227 5.10657 1.70508 3.97375 2.17383C3.1925 2.48633 2.60657 3.07227 2.29407 3.81445C1.82532 4.98633 1.9425 7.7207 1.9425 8.9707C1.9425 10.2598 1.82532 12.9941 2.29407 14.127C2.60657 14.9082 3.1925 15.4941 3.97375 15.8066C5.10657 16.2754 7.84094 16.1582 9.13 16.1582C10.38 16.1582 13.1144 16.2754 14.2863 15.8066C15.0284 15.4941 15.6534 14.9082 15.9269 14.127Z" fill="#64748B"/>
</svg>
