<svg width="20" height="20" viewBox="0 0 20 20" fill="none" xmlns="http://www.w3.org/2000/svg">
<path d="M9.6875 0.283203C15.0391 0.283203 19.375 4.61914 19.375 9.9707C19.375 15.3223 15.0391 19.6582 9.6875 19.6582C4.33594 19.6582 0 15.3223 0 9.9707C0 4.61914 4.33594 0.283203 9.6875 0.283203ZM14.4141 6.92383C14.5703 6.29883 14.1797 6.02539 13.75 6.18164L4.41406 9.77539C3.78906 10.0098 3.78906 10.4004 4.29688 10.5566L6.67969 11.2988L12.2266 7.7832C12.5 7.62695 12.7344 7.74414 12.5391 7.90039L8.04688 11.9629L7.89062 14.4238C8.125 14.4238 8.24219 14.3066 8.35938 14.1895L9.53125 13.0566L11.9531 14.8535C12.4219 15.0879 12.7344 14.9707 12.8516 14.4238L14.4141 6.92383Z" fill="#64748B"/>
</svg>
