<svg width="24" height="25" viewBox="0 0 24 25" fill="none" xmlns="http://www.w3.org/2000/svg">
<path d="M12 12.3901C12.55 12.3901 13.021 12.1941 13.413 11.8021C13.805 11.4101 14.0007 10.9394 14 10.3901C14 9.84014 13.804 9.36914 13.412 8.97714C13.02 8.58514 12.5493 8.38947 12 8.39014C11.45 8.39014 10.979 8.58614 10.587 8.97814C10.195 9.37014 9.99933 9.84081 10 10.3901C10 10.9401 10.196 11.4111 10.588 11.8031C10.98 12.1951 11.4507 12.3908 12 12.3901ZM12 19.7401C14.0333 17.8734 15.5417 16.1774 16.525 14.6521C17.5083 13.1268 18 11.7728 18 10.5901C18 8.77347 17.4207 7.28614 16.262 6.12814C15.1033 4.97014 13.6827 4.39081 12 4.39014C10.3167 4.39014 8.89567 4.96947 7.737 6.12814C6.57833 7.28681 5.99933 8.77414 6 10.5901C6 11.7734 6.49167 13.1278 7.475 14.6531C8.45833 16.1784 9.96667 17.8741 12 19.7401ZM12 22.3901C9.31667 20.1068 7.31267 17.9861 5.988 16.0281C4.66333 14.0701 4.00067 12.2574 4 10.5901C4 8.09014 4.80433 6.09847 6.413 4.61514C8.02167 3.13181 9.884 2.39014 12 2.39014C14.1167 2.39014 15.9793 3.13181 17.588 4.61514C19.1967 6.09847 20.0007 8.09014 20 10.5901C20 12.2568 19.3373 14.0694 18.012 16.0281C16.6867 17.9868 14.6827 20.1074 12 22.3901Z" fill="#64748B"/>
</svg>
