<svg width="24" height="25" viewBox="0 0 24 25" fill="none" xmlns="http://www.w3.org/2000/svg">
<path d="M6.62 10.9004C8.06 13.7304 10.38 16.0404 13.21 17.4904L15.41 15.2904C15.68 15.0204 16.08 14.9304 16.43 15.0504C17.55 15.4204 18.76 15.6204 20 15.6204C20.55 15.6204 21 16.0704 21 16.6204V20.1104C21 20.6604 20.55 21.1104 20 21.1104C10.61 21.1104 3 13.5004 3 4.11035C3 3.56035 3.45 3.11035 4 3.11035H7.5C8.05 3.11035 8.5 3.56035 8.5 4.11035C8.5 5.36035 8.7 6.56035 9.07 7.68035C9.18 8.03035 9.1 8.42035 8.82 8.70035L6.62 10.9004Z" fill="#64748B"/>
</svg>
