<svg width="26" height="26" viewBox="0 0 26 26" fill="none" xmlns="http://www.w3.org/2000/svg">
<g clip-path="url(#clip0_3_233)">
<mask id="mask0_3_233" style="mask-type:luminance" maskUnits="userSpaceOnUse" x="0" y="0" width="26" height="26">
<path d="M25.9501 0.589966H0.950058V25.59H25.9501V0.589966Z" fill="white"/>
</mask>
<g mask="url(#mask0_3_233)">
<path d="M23.3329 3.72971C20.5107 1.35666 16.1503 1.71311 13.4501 4.46213C10.7499 1.71311 6.38952 1.35178 3.56725 3.72971C-0.104622 6.82053 0.432485 11.8596 3.04968 14.5305L11.6142 23.2561C12.1025 23.7542 12.7567 24.0325 13.4501 24.0325C14.1484 24.0325 14.7978 23.759 15.286 23.261L23.8505 14.5354C26.4628 11.8645 27.0097 6.82542 23.3329 3.72971ZM22.1806 12.885L13.6161 21.6106C13.4989 21.7278 13.4013 21.7278 13.2841 21.6106L4.7196 12.885C2.93737 11.0686 2.57604 7.63108 5.07604 5.52659C6.97546 3.92991 9.90515 4.16916 11.7411 6.03928L13.4501 7.78245L15.1591 6.03928C17.0048 4.1594 19.9345 3.92991 21.8241 5.5217C24.3193 7.6262 23.9482 11.0833 22.1806 12.885Z" fill="#C2C6D1"/>
</g>
</g>
<defs>
<clipPath id="clip0_3_233">
<rect width="25" height="25" fill="white" transform="translate(0.950058 0.589966)"/>
</clipPath>
</defs>
</svg>
