<svg width="28" height="24" viewBox="0 0 28 24" fill="none" xmlns="http://www.w3.org/2000/svg">
<g id="heart.svg" clip-path="url(#clip0_3_2867)">
<g id="Layer_x0020_1">
<path id="Vector" fill-rule="evenodd" clip-rule="evenodd" d="M20.3116 2.29494C21.8396 2.29494 23.5752 3.37465 24.4069 4.59706C25.1767 5.72866 25.3756 6.63971 25.3756 8.05384C25.3756 10.4598 23.3272 13.6412 21.8151 15.371C21.5599 15.6637 21.3422 15.952 21.0698 16.2244L19.9786 17.4252C19.2636 18.133 18.1233 19.2805 17.3708 19.883C17.2771 19.958 17.2411 20.0084 17.1532 20.0906C16.2623 20.9238 15.3455 21.7037 13.9674 21.7037C12.8271 21.7037 12.1626 21.1689 11.5528 20.6528C11.4548 20.5692 11.4433 20.5778 11.3424 20.4899C11.2602 20.4164 11.2343 20.3789 11.1492 20.3097L10.4875 19.7461C10.3131 19.5774 10.2583 19.5183 10.0681 19.367C9.78119 19.1378 9.58226 18.8711 9.26801 18.6202C8.68275 18.1532 7.567 16.863 6.97021 16.2259C6.12548 15.322 4.91171 13.7421 4.28032 12.6768C3.29287 11.0104 2.66437 9.76782 2.66437 7.52192C2.66437 6.19572 3.32026 4.80897 4.19671 3.93684C6.08079 2.06285 8.52562 1.73707 10.7081 3.37032C11.8296 4.21073 12.6873 5.60757 12.8416 7.0491C12.905 7.65022 12.7464 8.07835 12.9972 8.54685C13.5839 9.64385 15.1941 9.20563 15.1941 7.94861C15.1941 6.55754 15.3844 5.6119 16.2897 4.40534L16.9312 3.7134C17.4213 3.33572 17.3737 3.25788 18.1622 2.86434C18.7215 2.58613 19.5072 2.29638 20.313 2.29638L20.3116 2.29494ZM0.370895 7.2538V8.32053C0.370895 10.2522 1.45637 12.4909 2.20596 13.7378C2.44093 14.1299 2.67157 14.4643 2.91952 14.8362L4.67674 17.1311C5.64689 18.2195 6.05772 18.675 7.12878 19.7446C7.92739 20.5432 10.1574 22.6003 10.9906 23.1337C12.99 24.4152 15.69 24.2624 17.5467 22.7776L20.8853 19.7706C23.0216 17.6342 25.1003 15.3321 26.4626 12.6048L27.0103 11.3405C27.6388 9.57466 27.6706 9.20563 27.6706 7.36191C27.6706 5.5009 26.7321 3.57069 25.4448 2.28341C22.4465 -0.71497 18.1954 -0.801461 15.0745 2.28341C14.841 2.51405 14.1476 3.37032 14.0755 3.68313H13.9688C13.8045 2.97678 12.3586 1.65202 11.6653 1.18785C9.56929 -0.21476 7.00913 -0.38486 4.74449 0.751064C3.09106 1.57994 1.96811 2.6928 1.11905 4.37651C0.783172 5.04105 0.372337 6.26491 0.372337 7.25524L0.370895 7.2538Z" fill="#212529"/>
</g>
</g>
<defs>
<clipPath id="clip0_3_2867">
<rect width="27.2986" height="24" fill="white" transform="translate(0.370728)"/>
</clipPath>
</defs>
</svg>
