<svg width="24" height="24" viewBox="0 0 24 24" fill="none" xmlns="http://www.w3.org/2000/svg">
<g id="language.svg" clip-path="url(#clip0_3_2850)">
<g id="Layer_x0020_1">
<path id="Vector" fill-rule="evenodd" clip-rule="evenodd" d="M14.6718 21.6094L15.4486 20.558C16.1325 19.6125 16.6216 18.6853 17.1408 17.6561C17.2546 17.4312 17.3278 17.2219 17.4377 17.0153H20.6247L19.5262 18.5427C18.7703 19.5157 17.6273 20.2533 16.5902 20.8575C16.2097 21.0785 15.1282 21.5035 14.6704 21.6094H14.6718ZM8.81168 17.0153H15.187C14.5214 18.2747 13.8492 19.4203 12.922 20.5162C12.7729 20.6927 12.0811 21.4303 12.0458 21.5624H11.9516C11.9202 21.4434 11.2167 20.6835 11.0754 20.5162C10.1508 19.4216 9.47603 18.272 8.81038 17.0153H8.81168ZM3.37402 17.0153H6.56103C6.66434 17.2101 6.7415 17.4259 6.8422 17.6247C6.94813 17.8352 7.04359 18.0249 7.15475 18.2498C7.98779 19.9198 9.12031 21.2184 9.32694 21.6094C9.07062 21.5493 8.57367 21.3819 8.34351 21.2812C7.75109 21.0209 7.14691 20.7489 6.60811 20.3919C4.93156 19.279 4.39538 18.5414 3.37402 17.0166V17.0153ZM16.0305 15H7.96818L7.65301 13.5811C7.45161 12.378 7.45161 11.6221 7.65301 10.4203L7.96818 9.00133H16.0305C16.0436 9.1648 16.3888 10.3522 16.4503 11.1604C16.4608 11.2978 16.4451 11.4351 16.4595 11.5724C16.5392 12.3047 16.4869 12.0523 16.4529 12.7978C16.415 13.5955 16.0488 14.7842 16.0305 15.0013V15ZM18.1399 9.00003H21.4211C21.5898 9.00003 21.5963 9.22758 21.684 9.58067C22.0789 11.1604 22.0828 12.8004 21.6931 14.3815C21.6146 14.7019 21.5898 15 21.4211 15H18.1399C18.1439 14.8012 18.238 14.4887 18.2772 14.2938C18.5362 13.0044 18.5963 11.7437 18.4028 10.4255L18.1412 9.00003H18.1399ZM5.48344 11.9529C5.48344 12.8121 5.55929 13.4869 5.72145 14.2925C5.76068 14.4887 5.85353 14.7999 5.85876 14.9987H2.57759C2.23496 14.9987 2.01526 12.5061 2.01526 12.1857C2.01526 11.1461 2.07018 10.5589 2.31473 9.57936C2.3592 9.40151 2.39189 8.99872 2.57759 8.99872H5.85876C5.85484 9.18965 5.7646 9.49436 5.72929 9.66698C5.57759 10.4255 5.48344 11.1434 5.48344 11.9529ZM11.9529 2.43769H12.0471C12.0785 2.5567 12.782 3.3165 12.9233 3.4839C13.0763 3.66568 13.1874 3.81868 13.3326 4.01223C14.2703 5.26376 14.4965 5.67962 15.187 6.98608H8.81168C9.47733 5.7267 10.1495 4.58111 11.0767 3.4852C11.2258 3.30866 11.9176 2.57108 11.9529 2.439V2.43769ZM14.6718 2.39061C14.9281 2.45077 15.425 2.61816 15.6552 2.71886C16.6151 3.14126 17.3017 3.46167 18.1556 4.15609C18.9285 4.78381 19.5222 5.3723 20.0898 6.15957C20.2925 6.44074 20.4403 6.70883 20.6247 6.98346H17.4377L16.8439 5.74894C16.6334 5.32653 16.4228 4.97474 16.1874 4.57849C15.7611 3.86315 15.5401 3.56367 15.068 2.93202C14.9281 2.74501 14.7738 2.58024 14.6731 2.3893L14.6718 2.39061ZM6.56234 6.98477H3.37533C3.55187 6.7206 3.7075 6.44728 3.89058 6.18834C4.65432 5.10552 5.82607 4.04623 6.98605 3.37797C7.45946 3.10465 7.81125 2.96079 8.31212 2.73586C8.56452 2.62208 9.05754 2.45469 9.32825 2.39192C9.12947 2.76855 7.97079 4.11424 7.17175 5.72017L6.56234 6.98608V6.98477ZM0 11.5789C0 13.7302 0.260244 15.3139 1.10898 17.0794C1.7354 18.3845 2.49259 19.4856 3.5048 20.4965C5.56713 22.5589 8.67045 24 11.5789 24C13.7328 24 15.3112 23.7398 17.0793 22.891C19.6844 21.6408 21.5636 19.776 22.8766 17.1094C23.5122 15.8187 24.0013 13.8845 24.0013 12.4211C24.0013 10.2672 23.7411 8.68878 22.8923 6.92069C22.5824 6.27466 22.2201 5.64432 21.8174 5.08852C21.4891 4.63473 20.881 3.88669 20.4965 3.50221L19.3705 2.51877C19.2188 2.39453 19.0907 2.30822 18.9377 2.20099C17.1931 0.970384 14.8025 -0.00128174 12.4211 -0.00128174C10.2646 -0.00128174 8.69137 0.257655 6.92066 1.1077C4.87663 2.08983 3.49041 3.2982 2.19573 5.05452C0.942895 6.75199 0 9.38974 0 11.5776V11.5789Z" fill="#212529"/>
</g>
</g>
<defs>
<clipPath id="clip0_3_2850">
<rect width="24" height="24" fill="white"/>
</clipPath>
</defs>
</svg>
