<svg width="25" height="24" viewBox="0 0 25 24" fill="none" xmlns="http://www.w3.org/2000/svg">
<g id="cart.svg" clip-path="url(#clip0_3_2856)">
<g id="Layer_x0020_1">
<g id="_1732897426368">
<path id="Vector" d="M23.3964 4.0774C22.8281 3.39467 21.9859 3.00037 21.0975 3.00037C21.0963 3.00037 21.0951 3.00037 21.0939 3.00037H4.9262L4.8836 2.64987C4.70592 1.14081 3.42565 0.00170527 1.90563 0.000488281H1.68292C1.13041 0.000488281 0.682556 0.44834 0.682556 1.00085C0.682556 1.55337 1.13041 2.00122 1.68292 2.00122H1.90441C2.4119 2.00122 2.83784 2.38092 2.89748 2.88475L4.27389 14.5837C4.56962 17.1016 6.70422 19.0001 9.23921 19.0001H19.6822C20.2347 19.0001 20.6826 18.5523 20.6826 17.9998C20.6826 17.4472 20.2347 16.9994 19.6822 16.9994H9.23921C7.9711 16.9957 6.84174 16.195 6.41944 14.9999H18.3386C20.758 14.9999 22.8305 13.2681 23.2589 10.8877L24.0439 6.53329C24.0755 6.35682 24.0926 6.17792 24.0926 5.99903C24.0926 5.29682 23.8455 4.61653 23.394 4.0774H23.3964ZM22.0833 6.17792L21.2971 10.5323C21.0403 11.9611 19.7966 13.0004 18.3447 13.0004C18.3435 13.0004 18.3423 13.0004 18.3399 13.0004H6.10181L5.16108 5.0011H21.0927C21.0951 5.0011 21.0963 5.0011 21.0988 5.0011C21.6513 5.0011 22.0991 5.44895 22.0991 6.00146C22.0991 6.06109 22.093 6.12073 22.0833 6.17914V6.17792Z" fill="#212529"/>
<path id="Vector_2" d="M7.68511 23.9983C8.78941 23.9983 9.68462 23.1031 9.68462 21.9988C9.68462 20.8945 8.78941 19.9993 7.68511 19.9993C6.58081 19.9993 5.68559 20.8945 5.68559 21.9988C5.68559 23.1031 6.58081 23.9983 7.68511 23.9983Z" fill="#212529"/>
<path id="Vector_3" d="M17.6839 23.9983C18.7882 23.9983 19.6834 23.1031 19.6834 21.9988C19.6834 20.8945 18.7882 19.9993 17.6839 19.9993C16.5796 19.9993 15.6844 20.8945 15.6844 21.9988C15.6844 23.1031 16.5796 23.9983 17.6839 23.9983Z" fill="#212529"/>
</g>
</g>
</g>
<defs>
<clipPath id="clip0_3_2856">
<rect width="23.41" height="23.9991" fill="white" transform="translate(0.684998 0.000488281)"/>
</clipPath>
</defs>
</svg>
