<svg width="30" height="24" viewBox="0 0 30 24" fill="none" xmlns="http://www.w3.org/2000/svg">
<g id="tracker.svg" clip-path="url(#clip0_3_2844)">
<g id="Layer_x0020_1">
<path id="Vector" fill-rule="evenodd" clip-rule="evenodd" d="M2.89345 7.95539L3.11408 8.39664C3.14559 8.45968 3.18681 8.51787 3.22075 8.5809C3.51048 9.12034 3.83172 9.6513 4.15902 10.1677C4.48996 10.6902 4.83666 11.2139 5.20639 11.7085C5.37246 11.9303 5.50217 12.134 5.73856 12.2903C5.95555 12.4346 6.23194 12.5304 6.49378 12.5304C7.22718 12.5304 7.49145 12.2503 7.90239 11.6951C7.99573 11.5691 8.08059 11.4369 8.17151 11.3084C8.26121 11.1824 8.34486 11.0526 8.43577 10.9278C8.78853 10.4441 9.11462 9.90223 9.42496 9.38946L9.89045 8.55787C10.202 8.00145 10.4481 7.43777 10.6517 6.83165C11.0457 5.65821 10.6336 4.19747 9.85045 3.27254C9.47466 2.82765 9.0528 2.46277 8.53397 2.19244C7.84663 1.83483 7.21506 1.70997 6.43802 1.70997C6.08404 1.70997 5.73977 1.77422 5.39913 1.86392C4.32025 2.14637 3.27773 2.98039 2.78314 3.98169C2.04004 5.48365 2.18672 6.48131 2.89466 7.95781L2.89345 7.95539ZM5.38216 6.03643V5.84247C5.38216 5.27878 5.89857 4.75873 6.60409 4.75873C7.16172 4.75873 7.71571 5.28969 7.71571 5.84247C7.71571 6.21947 7.64419 6.54435 7.36174 6.79407C6.49984 7.55535 5.38216 6.83044 5.38216 6.03643ZM23.0104 21.8851C22.2055 21.8851 21.4491 21.2269 21.4491 20.4208C21.4491 19.9686 21.4758 20.102 21.4976 19.8353H24.4251C24.6664 20.3383 24.4312 21.1057 24.0699 21.4318C23.8142 21.6633 23.3523 21.8839 23.0092 21.8839L23.0104 21.8851ZM9.98016 20.3723L10.0783 19.8353H13.0059C13.0568 20.4523 13.172 21.279 12.1682 21.7312C11.0542 22.2331 9.98016 21.3493 9.98016 20.3723ZM25.7428 17.6884H22.4734V13.5886H27.646V15.6385C27.646 16.2337 27.3914 16.7247 27.0981 17.0423C26.8181 17.3466 26.3029 17.6884 25.7428 17.6884ZM6.85745 15.6385V14.2238C7.38356 14.1741 7.89633 13.9947 8.33758 13.688C8.95219 13.2613 9.31707 12.6528 9.75468 12.0212C10.3038 11.2284 10.6493 10.655 11.1209 9.85859C11.1803 9.75798 11.23 9.67555 11.2809 9.57493L11.7343 8.69485C12.0531 8.0063 12.521 6.92257 12.521 5.95399C12.521 5.03876 12.2337 3.92714 11.8143 3.14646H17.1044C18.9967 3.14646 20.3738 4.52477 20.3738 6.41585V17.6884H8.75944C7.78359 17.6884 6.85624 16.7441 6.85624 15.6385H6.85745ZM4.75907 13.6868V15.8349C4.75907 16.3065 4.92273 16.9368 5.08395 17.2678C5.67067 18.4764 6.575 19.3746 7.93149 19.691C7.85754 20.5759 7.80299 21.0281 8.23939 21.9688C8.73156 23.0283 9.96925 23.9181 11.2021 23.9872C11.9282 24.0284 12.5174 23.9278 13.0714 23.6611C13.4326 23.4877 13.595 23.3883 13.8726 23.1459C14.149 22.9046 14.2896 22.7919 14.5285 22.4355C14.9091 21.8658 15.2012 21.0851 15.2012 20.3262C15.2012 20.1189 15.1528 20.0971 15.1528 19.8377H19.3495C19.3495 20.4984 19.2186 20.5893 19.5265 21.5154C20.1665 23.4441 22.3413 24.5557 24.4542 23.672C24.8252 23.5168 25.2252 23.2477 25.5125 22.9737C26.0034 22.5058 26.6217 21.5009 26.6217 20.5687C26.6217 20.1432 26.6556 20.0462 26.5732 19.6898C28.3261 19.2813 29.7456 17.566 29.7456 15.8349V10.2223C29.7456 9.29248 29.4038 8.43058 29.0607 7.83295C28.3018 6.51283 26.9829 5.55153 25.4107 5.28484C24.5742 5.14301 23.368 5.19514 22.3764 5.19514L22.1049 4.34415C21.34 2.43246 19.4792 1.04688 17.3008 1.04688H9.92561C9.69043 0.889288 9.42859 0.740184 9.13281 0.591079C8.42123 0.234683 7.61146 0.0395136 6.7932 0.00799561H6.30588C5.48763 0.0407259 4.67664 0.234683 3.96627 0.591079C3.59291 0.778975 2.97103 1.13658 2.65343 1.44449C2.51887 1.5742 2.39401 1.67118 2.2643 1.80574C2.19157 1.88211 2.1746 1.92575 2.09823 2.00091C1.85214 2.24699 1.67031 2.53671 1.47635 2.82401C0.951453 3.6059 0.576874 4.89814 0.576874 5.95278C0.576874 7.6984 2.14065 10.2162 2.96618 11.4539C3.25106 11.8818 3.75413 12.6322 4.06083 13.0262C4.27176 13.2965 4.48753 13.5038 4.76029 13.6868H4.75907ZM22.4734 7.34321H24.767C25.1828 7.34321 25.6313 7.50444 25.9234 7.65112C26.9393 8.16026 27.646 9.19793 27.646 10.3689V11.443H22.4734V7.34321ZM6.57621 8.31542C7.19445 8.31542 7.81754 8.03176 8.22242 7.62809C8.9037 6.95045 9.11099 5.93702 8.74732 5.0327C8.64064 4.76843 8.47942 4.50659 8.29152 4.32112C7.72419 3.76107 7.26961 3.56468 6.4368 3.56468C5.941 3.56468 5.5046 3.75985 5.14214 4.02048C4.99788 4.12474 4.9397 4.18777 4.81726 4.30778C4.6233 4.49932 4.46329 4.75146 4.3554 5.0133C4.25115 5.26908 4.13114 5.73337 4.16023 6.00491C4.20266 6.39403 4.25842 6.628 4.39056 6.94318C4.593 7.42807 5.09971 7.9069 5.58582 8.10934C5.87797 8.23057 6.17254 8.31542 6.575 8.31542H6.57621Z" fill="#212529"/>
</g>
</g>
<defs>
<clipPath id="clip0_3_2844">
<rect width="29.17" height="23.9864" fill="white" transform="translate(0.575012 0.0067749)"/>
</clipPath>
</defs>
</svg>
