<svg width="33" height="24" viewBox="0 0 33 24" fill="none" xmlns="http://www.w3.org/2000/svg">
<g id="payment.svg" clip-path="url(#clip0_3_2836)">
<g id="Layer_x0020_1">
<g id="_1735475502800">
<path id="Vector" d="M7.41987 18.6616C8.52361 18.6616 9.41836 17.7669 9.41836 16.6632C9.41836 15.5594 8.52361 14.6647 7.41987 14.6647C6.31614 14.6647 5.42139 15.5594 5.42139 16.6632C5.42139 17.7669 6.31614 18.6616 7.41987 18.6616Z" fill="#212529"/>
<path id="Vector_2" d="M25.4079 0.00744629H6.75373C3.07592 0.0107198 0.0953756 2.9929 0.0921021 6.66907V17.3293C0.0953756 21.0071 3.07592 23.9877 6.75373 23.9926H25.4079C29.0857 23.9877 32.0663 21.0071 32.0695 17.3309V6.67071C32.0663 2.9929 29.0857 0.0123566 25.4079 0.00908305V0.00744629ZM6.75373 2.6721H25.4079C27.6159 2.6721 29.4049 4.46271 29.4049 6.66907H2.75511C2.75511 4.46108 4.54573 2.6721 6.75209 2.6721H6.75373ZM25.4079 21.3263H6.75373C4.54573 21.3263 2.75675 19.5357 2.75675 17.3293V9.33372H29.4065V17.3293C29.4065 19.5373 27.6159 21.3263 25.4095 21.3263H25.4079Z" fill="#212529"/>
</g>
</g>
</g>
<defs>
<clipPath id="clip0_3_2836">
<rect width="31.98" height="23.9851" fill="white" transform="translate(0.0899963 0.00744629)"/>
</clipPath>
</defs>
</svg>
