<svg width="18" height="24" viewBox="0 0 18 24" fill="none" xmlns="http://www.w3.org/2000/svg">
<g id="avatar.svg" clip-path="url(#clip0_3_2875)">
<g id="Layer_x0020_1">
<g id="_1732704023632">
<path id="Vector" d="M9.00074 12C12.314 12 15.0007 9.31334 15.0007 6.00003C15.0007 2.68673 12.314 6.10352e-05 9.00074 6.10352e-05C5.68744 6.10352e-05 3.00077 2.68673 3.00077 6.00003C3.00375 9.31185 5.68893 11.997 9.00074 12ZM9.00074 2.00055C11.2096 2.00055 13.0002 3.79116 13.0002 6.00003C13.0002 8.2089 11.2096 9.99952 9.00074 9.99952C6.79187 9.99952 5.00126 8.2089 5.00126 6.00003C5.00126 3.79116 6.79187 2.00055 9.00074 2.00055Z" fill="#212529"/>
<path id="Vector_2" d="M9.00074 14.0005C4.03376 14.005 0.00450924 18.0327 4.3869e-05 23.0012C4.3869e-05 23.5534 0.448069 24.0014 1.00029 24.0014C1.5525 24.0014 2.00053 23.5534 2.00053 23.0012C2.00053 19.1357 5.13522 16.001 9.00074 16.001C12.8663 16.001 16.001 19.1357 16.001 23.0012C16.001 23.5534 16.449 24.0014 17.0012 24.0014C17.5534 24.0014 18.0014 23.5534 18.0014 23.0012C17.997 18.0342 13.9692 14.005 9.00074 14.0005Z" fill="#212529"/>
</g>
</g>
</g>
<defs>
<clipPath id="clip0_3_2875">
<rect width="18" height="23.9999" fill="white"/>
</clipPath>
</defs>
</svg>
