<svg width="20" height="19" viewBox="0 0 20 19" fill="none" xmlns="http://www.w3.org/2000/svg">
<g id="search-icon.svg">
<path id="Vector" d="M11.985 13.2262C11.9115 13.1527 11.8532 13.0654 11.8134 12.9693C11.7736 12.8732 11.7531 12.7703 11.7531 12.6663C11.7531 12.5623 11.7736 12.4593 11.8134 12.3632C11.8532 12.2672 11.9115 12.1799 11.985 12.1063C12.0586 12.0328 12.1459 11.9745 12.242 11.9347C12.338 11.8949 12.441 11.8744 12.545 11.8744C12.649 11.8744 12.752 11.8949 12.848 11.9347C12.9441 11.9745 13.0314 12.0328 13.1049 12.1063L16.2712 15.2737C16.3448 15.3473 16.4031 15.4346 16.4429 15.5306C16.4827 15.6267 16.5032 15.7297 16.5032 15.8337C16.5032 15.9377 16.4827 16.0406 16.4429 16.1367C16.4031 16.2328 16.3448 16.3201 16.2712 16.3936C16.1977 16.4672 16.1104 16.5255 16.0143 16.5653C15.9182 16.6051 15.8153 16.6256 15.7113 16.6256C15.6073 16.6256 15.5043 16.6051 15.4082 16.5653C15.3122 16.5255 15.2249 16.4672 15.1513 16.3936L11.985 13.2262Z" fill="white" stroke="white" stroke-width="0.558824"/>
<path id="Vector_2" fill-rule="evenodd" clip-rule="evenodd" d="M3.8363 8.70872C3.8363 10.1785 4.42018 11.5881 5.45948 12.6274C6.49877 13.6667 7.90837 14.2506 9.37816 14.2506C10.8479 14.2506 12.2575 13.6667 13.2968 12.6274C14.3361 11.5881 14.92 10.1785 14.92 8.70872C14.92 7.23893 14.3361 5.82934 13.2968 4.79004C12.2575 3.75074 10.8479 3.16687 9.37816 3.16687C7.90837 3.16687 6.49877 3.75074 5.45948 4.79004C4.42018 5.82934 3.8363 7.23893 3.8363 8.70872ZM13.3363 8.70872C13.3451 9.23411 13.2493 9.756 13.0543 10.244C12.8594 10.7319 12.5692 11.1762 12.2008 11.5508C11.8324 11.9255 11.3931 12.2231 10.9084 12.4262C10.4238 12.6293 9.90362 12.7339 9.37816 12.7339C8.85269 12.7339 8.33249 12.6293 7.84788 12.4262C7.36326 12.2231 6.92393 11.9255 6.55551 11.5508C6.18709 11.1762 5.89694 10.7319 5.70199 10.244C5.50704 9.756 5.41118 9.23411 5.42001 8.70872C5.43746 7.67048 5.86215 6.68065 6.60254 5.95259C7.34294 5.22453 8.33976 4.81653 9.37816 4.81653C10.4166 4.81653 11.4134 5.22453 12.1538 5.95259C12.8942 6.68065 13.3189 7.67048 13.3363 8.70872Z" fill="white"/>
<path id="Vector_3" d="M9.37871 13.9706C8.68761 13.9708 8.00326 13.8348 7.36473 13.5704C6.7262 13.306 6.146 12.9185 5.65727 12.4298C5.16854 11.9412 4.78086 11.3611 4.51635 10.7226C4.25185 10.0841 4.11571 9.39982 4.11571 8.70873H3.55688C3.55688 9.47321 3.70748 10.2302 4.00007 10.9365C4.29265 11.6427 4.7215 12.2845 5.26213 12.825C5.80275 13.3655 6.44455 13.7942 7.15088 14.0867C7.85721 14.3791 8.61423 14.5296 9.37871 14.5294V13.9706ZM14.6406 8.70873C14.6406 11.6146 12.2846 13.9706 9.37871 13.9706V14.5294C10.9225 14.5294 12.403 13.9162 13.4946 12.8246C14.5862 11.733 15.1994 10.2525 15.1994 8.70873H14.6406ZM9.37871 3.44573C12.2846 3.44573 14.6406 5.80173 14.6406 8.70873H15.1994C15.1996 7.94425 15.0491 7.18722 14.7567 6.48089C14.4642 5.77456 14.0355 5.13276 13.495 4.59214C12.9544 4.05152 12.3127 3.62267 11.6065 3.33008C10.9002 3.0375 10.1432 2.8869 9.37871 2.8869V3.44573ZM4.11571 8.70873C4.116 7.31298 4.67059 5.97449 5.65753 4.98755C6.64447 4.00061 7.98296 3.44602 9.37871 3.44573V2.8869C8.61413 2.88676 7.85702 3.03724 7.15062 3.32976C6.44422 3.62228 5.80237 4.05111 5.26173 4.59175C4.72109 5.13238 4.29227 5.77423 3.99975 6.48064C3.70722 7.18704 3.55674 7.94415 3.55688 8.70873H4.11571ZM9.37871 12.9457C10.5023 12.9454 11.5799 12.4989 12.3744 11.7044C13.1689 10.9099 13.6154 9.83236 13.6157 8.70873H13.0569C13.0566 9.68415 12.669 10.6195 11.9792 11.3093C11.2895 11.999 10.3541 12.3866 9.37871 12.3869V12.9457ZM5.14059 8.70873C5.14089 9.83255 5.58753 10.9102 6.3823 11.7048C7.17707 12.4994 8.25488 12.9457 9.37871 12.9457V12.3869C8.40309 12.3869 7.46742 11.9994 6.77745 11.3097C6.08748 10.6199 5.69971 9.68434 5.69941 8.70873H5.14059ZM9.37871 4.47061C8.25469 4.47061 7.17671 4.91712 6.38191 5.71192C5.58711 6.50672 5.14059 7.58471 5.14059 8.70873H5.69941C5.69941 7.73292 6.08705 6.79707 6.77705 6.10707C7.46706 5.41707 8.4029 5.02943 9.37871 5.02943V4.47061ZM13.6157 8.70873C13.6157 7.5849 13.1693 6.50709 12.3748 5.71232C11.5802 4.91755 10.5025 4.4709 9.37871 4.47061V5.02943C10.3543 5.02973 11.2899 5.4175 11.9796 6.10747C12.6694 6.79744 13.0569 7.73311 13.0569 8.70873H13.6157Z" fill="white"/>
</g>
</svg>
