<svg width="44" height="40" viewBox="0 0 44 40" fill="none" xmlns="http://www.w3.org/2000/svg">
<g id="market.svg" clip-path="url(#clip0_84_227)">
<path id="Vector" d="M34.064 16.429C34.064 25.502 26.757 32.857 17.742 32.857C8.72701 32.857 1.41901 25.502 1.41901 16.429C1.41901 7.356 8.72701 0 17.742 0C26.757 0 34.064 7.356 34.064 16.429Z" fill="#DFF1FF"/>
<path id="Vector_2" d="M24.141 23.427L38.357 16.924L24.141 11.72L7.84302 18.021L24.141 23.427Z" fill="#DFF1FF"/>
<path id="Vector_3" d="M24.14 24.1421C24.0646 24.1418 23.9897 24.1297 23.918 24.1061L7.62102 18.7001C7.48115 18.6536 7.35906 18.5651 7.27145 18.4466C7.18384 18.3281 7.13499 18.1854 7.1316 18.038C7.1282 17.8907 7.17043 17.7459 7.25249 17.6234C7.33455 17.501 7.45244 17.4069 7.59003 17.3541L23.887 11.0541C24.0464 10.9929 24.2225 10.9911 24.383 11.0491L38.6 16.2531C38.7325 16.3024 38.8475 16.3898 38.9304 16.5043C39.0134 16.6188 39.0605 16.7553 39.066 16.8966C39.0714 17.0379 39.0349 17.1776 38.9611 17.2982C38.8872 17.4187 38.7794 17.5148 38.651 17.5741L24.435 24.0781C24.3427 24.1201 24.2425 24.1419 24.141 24.1421H24.14ZM9.95603 17.9701L24.1 22.6621L36.482 16.9971L24.148 12.4831L9.95502 17.9691L9.95603 17.9701Z" fill="#008DFF"/>
<path id="Vector_4" d="M38.361 17.2329V31.4099L24.276 39.2859L7.84302 32.9849V18.0199L24.276 23.5329L38.361 17.2329Z" fill="#DFF1FF"/>
<path id="Vector_5" d="M24.276 40C24.1895 40 24.1037 39.9841 24.023 39.953L7.59097 33.653C7.45615 33.601 7.34028 33.5093 7.25868 33.39C7.17708 33.2707 7.1336 33.1295 7.13397 32.985V18.02C7.13397 17.79 7.24397 17.575 7.42897 17.44C7.51997 17.3735 7.62566 17.33 7.73709 17.3131C7.84851 17.2962 7.96237 17.3065 8.06897 17.343L24.239 22.768L38.072 16.58C38.18 16.5317 38.2984 16.5114 38.4164 16.5208C38.5343 16.5302 38.648 16.5692 38.747 16.634C38.8463 16.699 38.9278 16.7877 38.9842 16.8921C39.0406 16.9965 39.0701 17.1133 39.07 17.232V31.41C39.07 31.67 38.93 31.908 38.705 32.034L24.62 39.91C24.515 39.9691 24.3965 40.0001 24.276 40ZM8.55397 32.492L24.22 38.5L37.65 30.99V18.332L24.564 24.186C24.4021 24.2583 24.2191 24.2672 24.051 24.211L8.55298 19.011V32.491L8.55397 32.492Z" fill="#008DFF"/>
<path id="Vector_6" d="M24.129 40C24.0355 39.9997 23.943 39.9811 23.8567 39.945C23.7704 39.909 23.6921 39.8563 23.6262 39.79C23.5602 39.7237 23.508 39.6451 23.4725 39.5586C23.4369 39.4721 23.4188 39.3795 23.419 39.286V23.57C23.419 23.175 23.737 22.856 24.129 22.856C24.521 22.856 24.839 23.176 24.839 23.57V39.285C24.8393 39.3785 24.8211 39.4711 24.7856 39.5576C24.7501 39.6441 24.6978 39.7227 24.6319 39.789C24.566 39.8553 24.4876 39.908 24.4013 39.944C24.3151 39.9801 24.2225 39.9997 24.129 40ZM19.871 32.985L15.67 28.26L12.775 30.622V20L19.872 21.959L19.871 32.985Z" fill="#008DFF"/>
<path id="Vector_7" d="M19.871 33.6991C19.771 33.6991 19.6722 33.6778 19.581 33.6368C19.4898 33.5958 19.4083 33.5359 19.342 33.4611L15.591 29.2431L13.221 31.1771C13.1172 31.2621 12.9913 31.3157 12.8581 31.3316C12.7249 31.3476 12.5899 31.3252 12.469 31.2671C12.3475 31.2088 12.2451 31.1172 12.1736 31.0031C12.1021 30.8889 12.0644 30.7568 12.065 30.6221V20.0001C12.065 19.8907 12.0902 19.7828 12.1385 19.6847C12.1868 19.5866 12.257 19.5009 12.3437 19.4343C12.4303 19.3676 12.5312 19.3217 12.6384 19.3002C12.7456 19.2787 12.8563 19.282 12.962 19.3101L20.059 21.2701C20.2094 21.312 20.3418 21.4021 20.4361 21.5266C20.5304 21.651 20.5813 21.8029 20.581 21.9591V32.9841C20.581 33.1728 20.5064 33.3539 20.3734 33.4879C20.2404 33.6218 20.0598 33.6977 19.871 33.6991ZM15.668 27.5451C15.863 27.5451 16.057 27.6261 16.197 27.7831L19.161 31.1161V22.5031L13.484 20.9371V29.1231L15.222 27.7051C15.3476 27.6015 15.5053 27.5449 15.668 27.5451ZM31.221 20.6831C31.1428 20.683 31.0651 20.6701 30.991 20.6451L16.221 15.5471C16.0423 15.4849 15.8956 15.3544 15.8129 15.1842C15.7303 15.014 15.7184 14.818 15.78 14.6391C15.81 14.5507 15.8571 14.4692 15.9186 14.399C15.9801 14.3289 16.0548 14.2716 16.1385 14.2304C16.2222 14.1891 16.3132 14.1648 16.4062 14.1587C16.4993 14.1527 16.5927 14.165 16.681 14.1951L31.451 19.2931C31.6089 19.3496 31.7419 19.4597 31.8269 19.6043C31.9119 19.7488 31.9434 19.9186 31.916 20.084C31.8887 20.2495 31.8041 20.4 31.6771 20.5095C31.5501 20.619 31.3887 20.6804 31.221 20.6831Z" fill="#008DFF"/>
<path id="Vector_8" d="M14.485 15.536C14.485 19.364 11.401 22.468 7.59702 22.468C3.79302 22.468 0.710022 19.364 0.710022 15.536C0.710022 11.707 3.79302 8.604 7.59702 8.604C11.401 8.604 14.485 11.707 14.485 15.536Z" fill="white"/>
<path id="Vector_9" d="M7.597 23.1819C3.408 23.1819 0 19.7519 0 15.5359C0 11.3199 3.408 7.88892 7.597 7.88892C11.786 7.88892 15.194 11.3189 15.194 15.5359C15.194 19.7519 11.786 23.1819 7.597 23.1819ZM7.597 9.31792C4.191 9.31792 1.419 12.1079 1.419 15.5359C1.419 18.9639 4.191 21.7529 7.597 21.7529C11.004 21.7529 13.775 18.9629 13.775 15.5359C13.775 12.1069 11.004 9.31792 7.597 9.31792Z" fill="#008DFF"/>
<path id="Vector_10" d="M6.096 18.662C5.9648 18.6606 5.8365 18.6232 5.72511 18.5538C5.61373 18.4845 5.52354 18.3859 5.46441 18.2687C5.40527 18.1516 5.37946 18.0205 5.3898 17.8897C5.40013 17.7588 5.44621 17.6334 5.523 17.527L7.134 15.303V12.09C7.134 11.695 7.452 11.375 7.844 11.375C8.236 11.375 8.554 11.695 8.554 12.09V15.535C8.55382 15.686 8.50586 15.833 8.417 15.955L6.669 18.367C6.60371 18.458 6.51768 18.5321 6.41804 18.5833C6.31839 18.6344 6.208 18.661 6.096 18.661V18.662Z" fill="#008DFF"/>
<path id="Vector_11" d="M37.805 21.7329C34.775 21.7329 32.319 24.2049 32.319 27.2539C32.319 30.3039 37.805 36.9169 37.805 36.9169C37.805 36.9169 43.29 30.3039 43.29 27.2539C43.29 24.2039 40.835 21.7329 37.805 21.7329Z" fill="#DFF1FF"/>
<path id="Vector_12" d="M37.805 37.631C37.7008 37.631 37.598 37.6079 37.5038 37.5635C37.4095 37.5191 37.3263 37.4544 37.26 37.374C36.681 36.677 31.609 30.469 31.609 27.254C31.609 23.816 34.389 21.019 37.805 21.019C41.221 21.019 44 23.816 44 27.254C44 30.469 38.928 36.677 38.35 37.374C38.2838 37.4544 38.2005 37.5192 38.1063 37.5636C38.0121 37.608 37.9092 37.6311 37.805 37.631ZM37.805 22.448C35.171 22.448 33.029 24.604 33.029 27.254C33.029 29.299 36.096 33.615 37.805 35.784C39.513 33.614 42.581 29.298 42.581 27.254C42.581 24.604 40.438 22.448 37.805 22.448Z" fill="#008DFF"/>
<path id="Vector_13" d="M39.711 27.254C39.711 28.314 38.858 29.174 37.805 29.174C37.5537 29.1732 37.305 29.1229 37.0732 29.026C36.8413 28.929 36.6308 28.7874 36.4537 28.6091C36.2766 28.4308 36.1364 28.2193 36.0411 27.9868C35.9457 27.7543 35.8971 27.5053 35.898 27.254C35.898 26.194 36.751 25.335 37.805 25.335C38.858 25.335 39.711 26.194 39.711 27.254Z" fill="white"/>
<path id="Vector_14" d="M37.805 29.8881C37.1088 29.8854 36.4421 29.6065 35.9514 29.1127C35.4607 28.6188 35.1861 27.9503 35.188 27.2541C35.1864 26.5581 35.4611 25.8898 35.9518 25.3962C36.4424 24.9025 37.109 24.6237 37.805 24.6211C38.5009 24.624 39.1671 24.9029 39.6576 25.3965C40.148 25.8902 40.4226 26.5582 40.421 27.2541C40.4229 27.9501 40.1484 28.6185 39.6579 29.1123C39.1675 29.6062 38.501 29.8852 37.805 29.8881ZM37.805 26.0501C37.145 26.0501 36.608 26.5901 36.608 27.2541C36.608 27.9181 37.145 28.4591 37.805 28.4591C38.465 28.4591 39.002 27.9191 39.002 27.2541C39.002 26.5901 38.465 26.0501 37.805 26.0501Z" fill="#008DFF"/>
</g>
<defs>
<clipPath id="clip0_84_227">
<rect width="44" height="40" fill="white"/>
</clipPath>
</defs>
</svg>
