<svg width="55" height="40" viewBox="0 0 55 40" fill="none" xmlns="http://www.w3.org/2000/svg">
<g id="return.svg" clip-path="url(#clip0_84_272)">
<path id="Vector" d="M35.509 12.7429H12.864C12.6341 12.744 12.4066 12.7903 12.1947 12.8793C11.9827 12.9683 11.7903 13.0981 11.6285 13.2615C11.4667 13.4248 11.3387 13.6185 11.2518 13.8313C11.1649 14.0441 11.1208 14.272 11.122 14.5019V37.3619C11.122 38.3329 11.902 39.1209 12.864 39.1209H35.509C35.7389 39.1199 35.9663 39.0735 36.1783 38.9846C36.3903 38.8956 36.5827 38.7657 36.7444 38.6024C36.9062 38.439 37.0342 38.2454 37.1211 38.0325C37.208 37.8197 37.2522 37.5918 37.251 37.3619V14.5019C37.2522 14.272 37.208 14.0441 37.1211 13.8313C37.0342 13.6185 36.9062 13.4248 36.7444 13.2615C36.5827 13.0981 36.3903 12.9683 36.1783 12.8793C35.9663 12.7903 35.7389 12.744 35.509 12.7429Z" fill="#DFF1FF"/>
<path id="Vector_2" d="M28.5409 26.8109L24.1859 23.2939L19.8309 26.8109V12.7429H28.5409V26.8109Z" fill="#008DFF"/>
<path id="Vector_3" d="M13.7349 33.845H17.2179V36.483H13.7349V33.845Z" fill="#DFF1FF"/>
<path id="Vector_4" d="M38.1219 26.811H43.3469C44.3778 26.809 45.398 26.603 46.3489 26.2048C47.2997 25.8067 48.1623 25.2242 48.8869 24.491C50.3595 23.0018 51.1859 20.9923 51.1869 18.898V9.227C51.1859 7.13269 50.3595 5.12317 48.8869 3.634C48.1623 2.90082 47.2997 2.31834 46.3489 1.92015C45.398 1.52197 44.3778 1.31596 43.3469 1.314H31.4299V0L27.6699 2.193L31.4299 4.385V3.072H43.3469C44.1489 3.07348 44.9427 3.23374 45.6824 3.54354C46.4222 3.85334 47.0932 4.30654 47.6569 4.877C48.8016 6.03551 49.4436 7.5984 49.4439 9.227V18.898C49.4433 20.5267 48.8009 22.0896 47.6559 23.248C47.0924 23.8184 46.4215 24.2715 45.6819 24.5813C44.9423 24.8911 44.1488 25.0514 43.3469 25.053H38.1219V14.502C38.1216 13.8039 37.846 13.1342 37.3549 12.638C37.1135 12.3936 36.8261 12.1994 36.5093 12.0665C36.1925 11.9337 35.8525 11.8649 35.5089 11.864H12.8639C12.5202 11.8649 12.1801 11.9337 11.8631 12.0666C11.5462 12.1994 11.2586 12.3936 11.0169 12.638C10.5265 13.1345 10.2513 13.8041 10.2509 14.502V37.362C10.2509 37.662 10.3009 37.959 10.4009 38.242H1.53993C1.42537 38.242 1.31194 38.2647 1.20621 38.3088C1.10048 38.353 1.00454 38.4176 0.923935 38.499C0.760333 38.6645 0.668579 38.8878 0.668579 39.1205C0.668579 39.3532 0.760333 39.5765 0.923935 39.742C1.00446 39.8236 1.10036 39.8884 1.2061 39.9327C1.31183 39.977 1.4253 39.9999 1.53993 40H50.3139C50.4286 39.9999 50.542 39.977 50.6478 39.9327C50.7535 39.8884 50.8494 39.8236 50.9299 39.742C51.0938 39.5766 51.1857 39.3533 51.1857 39.1205C51.1857 38.8877 51.0938 38.6644 50.9299 38.499C50.8494 38.4174 50.7535 38.3526 50.6478 38.3083C50.542 38.264 50.4286 38.2411 50.3139 38.241H37.9709C38.0709 37.959 38.1209 37.661 38.1209 37.362V26.812L38.1219 26.811ZM20.7019 13.623H27.6699V24.982L24.7299 22.608C24.5757 22.484 24.3838 22.4164 24.1859 22.4164C23.9881 22.4164 23.7961 22.484 23.6419 22.608L20.7019 24.981V13.623ZM36.3799 25.053H32.8959C32.7814 25.053 32.6679 25.0757 32.5622 25.1198C32.4565 25.164 32.3605 25.2286 32.2799 25.31C32.116 25.4755 32.0241 25.6991 32.0241 25.932C32.0241 26.1649 32.116 26.3885 32.2799 26.554C32.3605 26.6354 32.4565 26.7 32.5622 26.7442C32.6679 26.7883 32.7814 26.811 32.8959 26.811H36.3799V37.362C36.3799 37.595 36.2879 37.8185 36.1239 37.984C36.0435 38.0655 35.9478 38.1302 35.8422 38.1745C35.7367 38.2188 35.6234 38.2417 35.5089 38.242H12.8639C12.7493 38.2418 12.6359 38.2189 12.5301 38.1746C12.4244 38.1303 12.3285 38.0655 12.2479 37.984C12.0844 37.8183 11.9928 37.5948 11.9929 37.362V14.502C11.9929 14.269 12.0849 14.045 12.2479 13.881C12.3285 13.7995 12.4244 13.7347 12.5301 13.6904C12.6359 13.6461 12.7493 13.6232 12.8639 13.623H18.9599V26.81C18.9602 26.9751 19.0066 27.1368 19.0939 27.2769C19.1812 27.417 19.3059 27.53 19.4539 27.603C19.6018 27.675 19.7671 27.7033 19.9304 27.6845C20.0937 27.6657 20.2483 27.6007 20.3759 27.497L24.1859 24.42L27.9959 27.497C28.0916 27.5743 28.2026 27.6303 28.3216 27.6614C28.4406 27.6925 28.5649 27.6979 28.6861 27.6773C28.8074 27.6567 28.9229 27.6105 29.0249 27.5418C29.1269 27.4732 29.2132 27.3836 29.2779 27.279C29.3657 27.1383 29.4121 26.9758 29.4119 26.81V13.623H35.5089C35.7389 13.623 35.9609 13.716 36.1239 13.881C36.2876 14.0463 36.3795 14.2694 36.3799 14.502V25.053Z" fill="#008DFF"/>
<path id="Vector_5" d="M17.2179 32.9661H13.7349C13.6203 32.9662 13.5068 32.9891 13.4011 33.0334C13.2953 33.0777 13.1994 33.1425 13.1189 33.2241C12.9555 33.3895 12.8639 33.6126 12.8639 33.8451V36.4831C12.8639 36.7161 12.9549 36.9401 13.1189 37.1051C13.1995 37.1865 13.2954 37.2511 13.4012 37.2952C13.5069 37.3393 13.6203 37.3621 13.7349 37.3621H17.2179C17.3325 37.3621 17.4459 37.3393 17.5516 37.2952C17.6573 37.2511 17.7533 37.1865 17.8339 37.1051C17.9976 36.9395 18.0892 36.7159 18.0889 36.4831V33.8451C18.089 33.6126 17.9973 33.3894 17.8339 33.2241C17.7534 33.1425 17.6575 33.0777 17.5517 33.0334C17.446 32.9891 17.3325 32.9662 17.2179 32.9661ZM16.3479 35.6041H14.6049V34.7241H16.3469V35.6041H16.3479ZM23.3149 32.9661H19.8309C19.7163 32.9662 19.6028 32.9891 19.4971 33.0334C19.3913 33.0777 19.2954 33.1425 19.2149 33.2241C19.051 33.3894 18.9591 33.6128 18.9591 33.8456C18.9591 34.0783 19.051 34.3017 19.2149 34.4671C19.2954 34.5487 19.3913 34.6135 19.4971 34.6578C19.6028 34.702 19.7163 34.7249 19.8309 34.7251H23.3149C23.4295 34.7249 23.543 34.702 23.6487 34.6578C23.7545 34.6135 23.8504 34.5487 23.9309 34.4671C24.0945 34.3016 24.1862 34.0783 24.1862 33.8456C24.1862 33.6129 24.0945 33.3895 23.9309 33.2241C23.8504 33.1425 23.7545 33.0777 23.6487 33.0334C23.543 32.9891 23.4295 32.9662 23.3149 32.9661ZM20.7019 35.6041H19.8319C19.7172 35.6039 19.6035 35.6266 19.4976 35.6707C19.3917 35.7148 19.2956 35.7795 19.2149 35.8611C19.0507 36.0265 18.9586 36.25 18.9586 36.4831C18.9586 36.7161 19.0507 36.9397 19.2149 37.1051C19.2955 37.1865 19.3914 37.2511 19.4972 37.2952C19.6029 37.3393 19.7163 37.3621 19.8309 37.3621H20.7019C20.8165 37.3621 20.9299 37.3393 21.0356 37.2952C21.1413 37.2511 21.2373 37.1865 21.3179 37.1051C21.4818 36.9395 21.5737 36.716 21.5737 36.4831C21.5737 36.2501 21.4818 36.0266 21.3179 35.8611C21.2373 35.7797 21.1413 35.715 21.0356 35.6709C20.9299 35.6268 20.8165 35.6041 20.7019 35.6041ZM53.7989 38.2421H52.9289C52.8142 38.2419 52.7005 38.2646 52.5946 38.3087C52.4887 38.3528 52.3926 38.4175 52.3119 38.4991C52.148 38.6644 52.0561 38.8878 52.0561 39.1206C52.0561 39.3533 52.148 39.5767 52.3119 39.7421C52.3924 39.8237 52.4883 39.8885 52.5941 39.9328C52.6998 39.977 52.8133 39.9999 52.9279 40.0001H53.7989C53.9135 39.9999 54.027 39.977 54.1327 39.9328C54.2385 39.8885 54.3344 39.8237 54.4149 39.7421C54.5785 39.5766 54.6702 39.3533 54.6702 39.1206C54.6702 38.8879 54.5785 38.6645 54.4149 38.4991C54.3344 38.4175 54.2385 38.3527 54.1327 38.3084C54.027 38.2641 53.9135 38.2422 53.7989 38.2421Z" fill="#008DFF"/>
</g>
<defs>
<clipPath id="clip0_84_272">
<rect width="54" height="40" fill="white" transform="translate(0.669922)"/>
</clipPath>
</defs>
</svg>
