<svg width="49" height="32" viewBox="0 0 49 32" fill="none" xmlns="http://www.w3.org/2000/svg">
<g id="card.svg" clip-path="url(#clip0_84_284)">
<path id="Vector" d="M45.11 0.800049H9.49502C7.78602 0.800049 6.40002 2.23105 6.40002 4.00005V23.2001C6.40002 24.9661 7.78702 26.4 9.49702 26.4H45.11C46.82 26.4 48.207 24.9661 48.207 23.2001V4.00005C48.207 2.23205 46.82 0.800049 45.11 0.800049Z" fill="#DFF1FF"/>
<path id="Vector_2" d="M1.75403 10.3999H43.561V15.1999H1.75403V10.3999Z" fill="#008DFF"/>
<path id="Vector_3" d="M43.5599 8.8001V10.4001H1.75492V8.8001C1.75492 7.9511 2.08092 7.1371 2.66192 6.5371C2.94539 6.24194 3.28538 6.00686 3.66163 5.84588C4.03788 5.6849 4.44268 5.60132 4.85192 5.6001H40.4649C41.2859 5.6001 42.0739 5.9371 42.6549 6.5371C43.2349 7.1371 43.5619 7.9511 43.5619 8.8001H43.5599ZM1.75392 15.2001H43.5609V28.0001C43.5609 28.8491 43.2339 29.6631 42.6539 30.2631C42.0729 30.8631 41.2849 31.2001 40.4639 31.2001H4.84992C4.44067 31.199 4.03583 31.1155 3.65956 30.9545C3.2833 30.7935 2.94332 30.5583 2.65992 30.2631C2.0762 29.6546 1.7514 28.8433 1.75392 28.0001V15.2001Z" fill="#DFF1FF"/>
<path id="Vector_4" d="M4.85093 18.3999H20.3349V21.5999H4.84993V18.3999H4.85093ZM4.85093 28.7999H11.8189C11.9211 28.7996 12.0222 28.7787 12.1162 28.7385C12.2102 28.6983 12.2951 28.6396 12.3659 28.5659C12.5121 28.4138 12.5935 28.2109 12.5929 27.9999C12.5935 27.7889 12.5121 27.586 12.3659 27.4339C12.2951 27.3602 12.2102 27.3014 12.1162 27.2612C12.0223 27.221 11.9211 27.2002 11.8189 27.1999H4.84993C4.74771 27.2002 4.6466 27.221 4.55262 27.2612C4.45864 27.3014 4.37372 27.3602 4.30293 27.4339C4.15678 27.586 4.0754 27.7889 4.07593 27.9999C4.07593 28.2119 4.15693 28.4159 4.30293 28.5659C4.37368 28.6397 4.45859 28.6984 4.55258 28.7387C4.64657 28.7789 4.7477 28.7997 4.84993 28.7999H4.85093ZM14.9149 27.1999H14.1409C14.0387 27.2002 13.9376 27.221 13.8436 27.2612C13.7496 27.3014 13.6647 27.3602 13.5939 27.4339C13.4478 27.586 13.3664 27.7889 13.3669 27.9999C13.3669 28.2119 13.4489 28.4159 13.5939 28.5659C13.6647 28.6397 13.7496 28.6984 13.8436 28.7387C13.9376 28.7789 14.0387 28.7997 14.1409 28.7999H14.9149C15.0173 28.7997 15.1186 28.7789 15.2128 28.7387C15.3069 28.6985 15.392 28.6397 15.4629 28.5659C15.6091 28.4138 15.6905 28.2109 15.6899 27.9999C15.6905 27.7889 15.6091 27.586 15.4629 27.4339C15.392 27.36 15.3069 27.3012 15.2128 27.261C15.1186 27.2208 15.0173 27.2 14.9149 27.1999Z" fill="#008DFF"/>
<path id="Vector_5" d="M4.85093 22.4001H20.3349C20.4371 22.3998 20.5383 22.379 20.6322 22.3388C20.7262 22.2986 20.8111 22.2398 20.8819 22.1661C21.0281 22.014 21.1095 21.8111 21.1089 21.6001V18.4001C21.1095 18.1891 21.0281 17.9862 20.8819 17.8341C20.8111 17.7604 20.7262 17.7017 20.6322 17.6615C20.5382 17.6213 20.4371 17.6004 20.3349 17.6001H4.84993C4.74772 17.6004 4.64662 17.6213 4.55265 17.6615C4.45868 17.7017 4.37375 17.7604 4.30293 17.8341C4.15678 17.9862 4.0754 18.1891 4.07593 18.4001V21.6001C4.07593 21.8121 4.15693 22.0161 4.30293 22.1661C4.37368 22.2399 4.45859 22.2986 4.55258 22.3388C4.64657 22.3791 4.7477 22.3999 4.84993 22.4001H4.85093ZM5.62493 19.2001H19.5609V20.8001H5.62493V19.2001Z" fill="#008DFF"/>
<path id="Vector_6" d="M45.109 0H9.49599C8.98458 0.00204912 8.47882 0.106953 8.00879 0.308468C7.53875 0.509984 7.11406 0.803993 6.75999 1.173C6.03023 1.93305 5.62341 2.94633 5.62499 4V4.8H4.85099C4.33958 4.80205 3.83382 4.90695 3.36379 5.10847C2.89375 5.30998 2.46906 5.60399 2.11498 5.973C1.38523 6.73305 0.978409 7.74633 0.979985 8.8V28C0.978409 29.0537 1.38523 30.0669 2.11498 30.827C2.46906 31.196 2.89375 31.49 3.36379 31.6915C3.83382 31.893 4.33958 31.998 4.85099 32H40.464C40.9754 31.998 41.4812 31.893 41.9512 31.6915C42.4212 31.49 42.8459 31.196 43.2 30.827C43.9297 30.0669 44.3366 29.0537 44.335 28V27.2H45.109C45.6204 27.198 46.1262 27.093 46.5962 26.8915C47.0662 26.69 47.4909 26.396 47.845 26.027C48.5747 25.267 48.9816 24.2537 48.98 23.2V4C48.9816 2.94633 48.5747 1.93305 47.845 1.173C47.4909 0.803993 47.0662 0.509984 46.5962 0.308468C46.1262 0.106953 45.6204 0.00204912 45.109 0ZM2.52899 8.8C2.52899 8.164 2.77399 7.554 3.20899 7.104C3.42147 6.88252 3.67634 6.70606 3.95843 6.58511C4.24052 6.46417 4.54406 6.40121 4.85099 6.4H40.464C41.08 6.4 41.67 6.654 42.105 7.104C42.541 7.554 42.785 8.164 42.786 8.8V9.6H2.52798V8.8H2.52899ZM2.52899 11.2H42.786V14.4H2.52798V11.2H2.52899ZM42.785 28C42.785 28.636 42.54 29.246 42.105 29.696C41.8925 29.9175 41.6376 30.0939 41.3555 30.2149C41.0734 30.3358 40.7699 30.3988 40.463 30.4H4.84998C4.54306 30.3988 4.23952 30.3358 3.95743 30.2149C3.67534 30.0939 3.42047 29.9175 3.20798 29.696C2.77129 29.2395 2.5283 28.6317 2.52998 28V16H42.787V28H42.785ZM47.431 23.2C47.4315 23.8321 47.1875 24.4398 46.75 24.896C46.5375 25.1175 46.2826 25.2939 46.0005 25.4149C45.7184 25.5358 45.4149 25.5988 45.108 25.6H44.334V8.8C44.3356 7.74633 43.9287 6.73305 43.199 5.973C42.845 5.60411 42.4205 5.31017 41.9506 5.10866C41.4808 4.90715 40.9752 4.80218 40.464 4.8H7.17399V4C7.17399 3.364 7.41899 2.754 7.85399 2.304C8.06659 2.0824 8.32162 1.90586 8.60389 1.78492C8.88616 1.66397 9.18989 1.60108 9.49699 1.6H45.11C45.726 1.6 46.316 1.854 46.752 2.304C47.187 2.754 47.432 3.364 47.432 4L47.431 23.2Z" fill="#008DFF"/>
</g>
<defs>
<clipPath id="clip0_84_284">
<rect width="48" height="32" fill="white" transform="translate(0.97998)"/>
</clipPath>
</defs>
</svg>
