<svg width="45" height="40" viewBox="0 0 45 40" fill="none" xmlns="http://www.w3.org/2000/svg">
<g id="fast-delivery.svg" clip-path="url(#clip0_84_248)">
<path id="Vector" d="M44.3549 16.062C44.3549 24.932 37.1649 32.124 28.2939 32.124C19.4229 32.124 12.2319 24.933 12.2319 16.062C12.2319 7.192 19.4229 0 28.2929 0C37.1639 0 44.3549 7.191 44.3549 16.062Z" fill="#DFF1FF"/>
<path id="Vector_2" d="M31.087 36.314H8.73999V19.033C8.73986 18.6429 8.81658 18.2566 8.96578 17.8961C9.11498 17.5357 9.33373 17.2082 9.60953 16.9323C9.88533 16.6564 10.2128 16.4375 10.5732 16.2882C10.9336 16.1389 11.3199 16.062 11.71 16.062H28.116C28.9037 16.062 29.6591 16.3749 30.2161 16.9319C30.7731 17.4889 31.086 18.2443 31.086 19.032L31.087 36.314Z" fill="#008DFF"/>
<path id="Vector_3" d="M31.087 37.012H8.73999C8.55487 37.012 8.37733 36.9385 8.24643 36.8076C8.11553 36.6767 8.04199 36.4992 8.04199 36.314V19.033C8.04279 18.0599 8.4297 17.1269 9.11779 16.4388C9.80587 15.7507 10.7389 15.3638 11.712 15.363H28.116C29.0891 15.3638 30.0221 15.7507 30.7102 16.4388C31.3983 17.1269 31.7852 18.0599 31.786 19.033V36.313C31.7861 36.4049 31.7681 36.4958 31.7331 36.5807C31.698 36.6656 31.6465 36.7427 31.5816 36.8076C31.5166 36.8725 31.4395 36.924 31.3546 36.9591C31.2698 36.9942 31.1788 37.0122 31.087 37.012ZM9.43799 35.615H30.388V19.033C30.3872 18.4306 30.1476 17.8531 29.7217 17.427C29.2958 17.0009 28.7184 16.7611 28.116 16.76H11.711C11.1084 16.7608 10.5307 17.0006 10.1046 17.4267C9.67852 17.8528 9.43879 18.4304 9.43799 19.033V35.615Z" fill="#008DFF"/>
<path id="Vector_4" d="M43.657 36.3139H31.087V23.0449H37.544C38.3144 23.0431 39.0732 23.2331 39.7518 23.5978C40.4304 23.9625 41.0075 24.4904 41.431 25.1339L43.657 28.5409V36.3139Z" fill="white"/>
<path id="Vector_5" d="M43.657 37.0119H31.087C30.9019 37.0119 30.7244 36.9384 30.5935 36.8075C30.4626 36.6766 30.389 36.499 30.389 36.3139V23.0449C30.389 22.6589 30.701 22.3469 31.087 22.3469H37.544C39.361 22.3469 41.031 23.2449 42.014 24.7509L44.241 28.1579C44.3156 28.2717 44.3552 28.4049 44.355 28.5409V36.3139C44.3552 36.4056 44.3372 36.4964 44.3022 36.5812C44.2671 36.6659 44.2157 36.7429 44.1509 36.8078C44.0861 36.8726 44.0091 36.924 43.9243 36.9591C43.8396 36.9941 43.7487 37.0121 43.657 37.0119ZM31.785 35.6149H42.96V28.7499L40.847 25.5159C40.488 24.969 39.998 24.5205 39.4215 24.2112C38.8449 23.9019 38.2003 23.7416 37.546 23.7449H31.786V35.6159L31.785 35.6149Z" fill="#008DFF"/>
<path id="Vector_6" d="M31.087 36.314H6.64502V35.624C6.64502 35.256 6.71753 34.8915 6.8584 34.5515C6.99928 34.2115 7.20576 33.9026 7.46606 33.6424C7.72636 33.3822 8.03536 33.1758 8.37543 33.035C8.7155 32.8943 9.07997 32.8219 9.44802 32.822H31.088V36.314H31.087Z" fill="#9DC1E4"/>
<path id="Vector_7" d="M31.087 37.012H6.64502C6.55336 37.012 6.46259 36.994 6.37791 36.9589C6.29322 36.9238 6.21628 36.8724 6.15146 36.8076C6.08665 36.7428 6.03523 36.6658 6.00015 36.5811C5.96508 36.4964 5.94702 36.4057 5.94702 36.314V35.624C5.94702 33.694 7.51702 32.124 9.44702 32.124H31.087C31.473 32.124 31.785 32.436 31.785 32.822V36.314C31.785 36.4991 31.7115 36.6767 31.5806 36.8076C31.4497 36.9385 31.2721 37.012 31.087 37.012ZM7.34302 35.615H30.39V33.52H9.44702C8.29002 33.52 7.34802 34.46 7.34302 35.615Z" fill="#008DFF"/>
<path id="Vector_8" d="M40.709 36.14C40.709 36.9788 40.3758 37.7832 39.7828 38.3763C39.1897 38.9693 38.3853 39.3025 37.5465 39.3025C36.7078 39.3025 35.9034 38.9693 35.3103 38.3763C34.7172 37.7832 34.384 36.9788 34.384 36.14C34.384 35.3013 34.7172 34.4969 35.3103 33.9038C35.9034 33.3107 36.7078 32.9775 37.5465 32.9775C38.3853 32.9775 39.1897 33.3107 39.7828 33.9038C40.3758 34.4969 40.709 35.3013 40.709 36.14Z" fill="#DFF1FF"/>
<path id="Vector_9" d="M37.547 39.9999C36.5235 39.9989 35.5422 39.5919 34.8184 38.8682C34.0946 38.1446 33.6873 37.1634 33.686 36.1399C33.6871 35.1164 34.094 34.1351 34.8177 33.4113C35.5413 32.6875 36.5225 32.2802 37.546 32.2789C38.5693 32.2802 39.5504 32.6873 40.274 33.411C40.9976 34.1346 41.4047 35.1156 41.406 36.1389C41.4047 37.1622 40.9977 38.1432 40.2744 38.8669C39.551 39.5906 38.5702 39.9981 37.547 39.9999ZM37.547 33.6749C36.8937 33.6757 36.2675 33.9356 35.8056 34.3975C35.3436 34.8594 35.0838 35.4857 35.083 36.1389C35.0838 36.7922 35.3436 37.4184 35.8056 37.8804C36.2675 38.3423 36.8937 38.6021 37.547 38.6029C38.2001 38.6019 38.8261 38.3419 39.2878 37.88C39.7495 37.4181 40.0092 36.792 40.01 36.1389C40.0092 35.4858 39.7495 34.8597 39.2878 34.3978C38.8261 33.936 38.2001 33.676 37.547 33.6749ZM18.517 23.7439H1.058C0.966269 23.7439 0.875439 23.7259 0.790693 23.6908C0.705947 23.6557 0.628945 23.6042 0.564083 23.5393C0.499221 23.4745 0.44777 23.3975 0.412667 23.3127C0.377564 23.228 0.359497 23.1372 0.359497 23.0454C0.359497 22.9537 0.377564 22.8629 0.412667 22.7781C0.44777 22.6934 0.499221 22.6164 0.564083 22.5515C0.628945 22.4866 0.705947 22.4352 0.790693 22.4001C0.875439 22.365 0.966269 22.3469 1.058 22.3469H18.517C18.6087 22.3469 18.6996 22.365 18.7843 22.4001C18.869 22.4352 18.946 22.4866 19.0109 22.5515C19.0758 22.6164 19.1272 22.6934 19.1623 22.7781C19.1974 22.8629 19.2155 22.9537 19.2155 23.0454C19.2155 23.1372 19.1974 23.228 19.1623 23.3127C19.1272 23.3975 19.0758 23.4745 19.0109 23.5393C18.946 23.6042 18.869 23.6557 18.7843 23.6908C18.6996 23.7259 18.6087 23.7439 18.517 23.7439Z" fill="#008DFF"/>
<path id="Vector_10" d="M38.6889 36.1401C38.6889 36.4431 38.5686 36.7337 38.3543 36.9479C38.14 37.1622 37.8494 37.2826 37.5464 37.2826C37.2434 37.2826 36.9528 37.1622 36.7386 36.9479C36.5243 36.7337 36.4039 36.4431 36.4039 36.1401C36.4039 35.837 36.5243 35.5464 36.7386 35.3322C36.9528 35.1179 37.2434 34.9976 37.5464 34.9976C37.8494 34.9976 38.14 35.1179 38.3543 35.3322C38.5686 35.5464 38.6889 35.837 38.6889 36.1401Z" fill="#008DFF"/>
<path id="Vector_11" d="M19.759 36.14C19.759 36.9788 19.4258 37.7832 18.8327 38.3763C18.2396 38.9693 17.4352 39.3025 16.5965 39.3025C15.7577 39.3025 14.9533 38.9693 14.3602 38.3763C13.7672 37.7832 13.434 36.9788 13.434 36.14C13.434 35.3013 13.7672 34.4969 14.3602 33.9038C14.9533 33.3107 15.7577 32.9775 16.5965 32.9775C17.4352 32.9775 18.2396 33.3107 18.8327 33.9038C19.4258 34.4969 19.759 35.3013 19.759 36.14Z" fill="#DFF1FF"/>
<path id="Vector_12" d="M16.596 40.0001C15.5726 39.9987 14.5916 39.5916 13.868 38.868C13.1444 38.1444 12.7373 37.1634 12.736 36.1401C12.737 35.1165 13.144 34.1353 13.8676 33.4114C14.5913 32.6876 15.5725 32.2804 16.596 32.2791C17.6195 32.2801 18.6008 32.6871 19.3246 33.4107C20.0484 34.1344 20.4556 35.1156 20.457 36.1391C20.4559 37.1626 20.0489 38.1439 19.3253 38.8677C18.6017 39.5915 17.6195 39.9987 16.596 40.0001ZM16.596 33.6751C15.9427 33.6758 15.3164 33.9357 14.8545 34.3976C14.3926 34.8595 14.1328 35.4858 14.132 36.1391C14.1328 36.7923 14.3926 37.4186 14.8545 37.8805C15.3164 38.3424 15.9427 38.6023 16.596 38.6031C17.2492 38.6023 17.8755 38.3424 18.3374 37.8805C18.7993 37.4186 19.0592 36.7923 19.06 36.1391C19.0592 35.4858 18.7993 34.8595 18.3374 34.3976C17.8755 33.9357 17.2492 33.6758 16.596 33.6751Z" fill="#008DFF"/>
<path id="Vector_13" d="M17.739 36.1401C17.739 36.4431 17.6186 36.7337 17.4043 36.9479C17.1901 37.1622 16.8995 37.2826 16.5965 37.2826C16.2935 37.2826 16.0029 37.1622 15.7886 36.9479C15.5744 36.7337 15.454 36.4431 15.454 36.1401C15.454 35.837 15.5744 35.5464 15.7886 35.3322C16.0029 35.1179 16.2935 34.9976 16.5965 34.9976C16.8995 34.9976 17.1901 35.1179 17.4043 35.3322C17.6186 35.5464 17.739 35.837 17.739 36.1401Z" fill="#008DFF"/>
<path id="Vector_14" d="M16.762 16.6519C16.762 18.2822 16.1144 19.8457 14.9616 20.9985C13.8088 22.1513 12.2453 22.7989 10.615 22.7989C8.98473 22.7989 7.42122 22.1513 6.26843 20.9985C5.11565 19.8457 4.46802 18.2822 4.46802 16.6519C4.46802 15.0216 5.11565 13.4581 6.26843 12.3053C7.42122 11.1525 8.98473 10.5049 10.615 10.5049C12.2453 10.5049 13.8088 11.1525 14.9616 12.3053C16.1144 13.4581 16.762 15.0216 16.762 16.6519Z" fill="white"/>
<path id="Vector_15" d="M10.615 23.4969C8.80026 23.4948 7.06044 22.7729 5.77721 21.4897C4.49398 20.2065 3.77214 18.4666 3.77002 16.6519C3.77214 14.8371 4.49398 13.0973 5.77721 11.8141C7.06044 10.5308 8.80026 9.809 10.615 9.80688C12.4298 9.809 14.1696 10.5308 15.4528 11.8141C16.7361 13.0973 17.4579 14.8371 17.46 16.6519C17.4579 18.4666 16.7361 20.2065 15.4528 21.4897C14.1696 22.7729 12.4298 23.4948 10.615 23.4969ZM10.615 11.2029C9.17052 11.2047 7.78572 11.7795 6.76439 12.801C5.74307 13.8225 5.16861 15.2074 5.16702 16.6519C5.16887 18.0962 5.74345 19.4809 6.76475 20.5022C7.78604 21.5235 9.17069 22.098 10.615 22.0999C12.0595 22.0983 13.4444 21.5238 14.4659 20.5025C15.4875 19.4812 16.0622 18.0964 16.064 16.6519C16.0624 15.2072 15.4878 13.8222 14.4663 12.8006C13.4447 11.7791 12.0597 11.2045 10.615 11.2029Z" fill="#008DFF"/>
<path id="Vector_16" d="M9.27498 19.4889C9.14602 19.489 9.01956 19.4534 8.90962 19.386C8.79968 19.3186 8.71055 19.2221 8.65214 19.1071C8.59372 18.9921 8.5683 18.8632 8.57868 18.7347C8.58907 18.6062 8.63486 18.483 8.71098 18.3789L10.137 16.4239V13.5969C10.137 13.4118 10.2105 13.2343 10.3414 13.1034C10.4723 12.9725 10.6499 12.8989 10.835 12.8989C11.0201 12.8989 11.1976 12.9725 11.3285 13.1034C11.4594 13.2343 11.533 13.4118 11.533 13.5969V16.6519C11.5331 16.7997 11.4861 16.9436 11.399 17.0629L9.83998 19.2019C9.77518 19.291 9.6902 19.3635 9.59198 19.4134C9.49377 19.4632 9.38514 19.4891 9.27498 19.4889Z" fill="#008DFF"/>
<path id="Vector_17" d="M35.975 25.1399V30.0289H40.675C40.7652 30.0291 40.8539 30.0056 40.9322 29.9607C41.0104 29.9157 41.0755 29.851 41.1208 29.773C41.1661 29.6949 41.1901 29.6063 41.1903 29.5161C41.1905 29.4258 41.1669 29.3371 41.122 29.2589L39.492 26.4049C39.2723 26.0206 38.955 25.7012 38.5722 25.4791C38.1894 25.2569 37.7546 25.1399 37.312 25.1399H35.975Z" fill="#DFF1FF"/>
<path id="Vector_18" d="M40.675 30.7269H35.975C35.7899 30.7269 35.6123 30.6534 35.4814 30.5225C35.3505 30.3916 35.277 30.214 35.277 30.0289V25.1399C35.277 24.7539 35.589 24.4419 35.975 24.4419H37.311C38.461 24.4419 39.528 25.0619 40.098 26.0589L41.728 28.9129C41.945 29.2909 41.944 29.7429 41.725 30.1229C41.505 30.5009 41.113 30.7269 40.675 30.7269ZM36.674 29.3309H40.358L38.885 26.7509C38.726 26.4738 38.4968 26.2435 38.2205 26.0832C37.9442 25.9229 37.6305 25.8383 37.311 25.8379H36.674V29.3309ZM14.327 26.5369H5.24799C5.06273 26.5369 4.88507 26.4633 4.75407 26.3323C4.62308 26.2013 4.54949 26.0236 4.54949 25.8384C4.54949 25.6531 4.62308 25.4755 4.75407 25.3445C4.88507 25.2135 5.06273 25.1399 5.24799 25.1399H14.327C14.5122 25.1399 14.6899 25.2135 14.8209 25.3445C14.9519 25.4755 15.0255 25.6531 15.0255 25.8384C15.0255 26.0236 14.9519 26.2013 14.8209 26.3323C14.6899 26.4633 14.5122 26.5369 14.327 26.5369ZM10.835 29.3299H1.05799C0.872864 29.3299 0.695325 29.2564 0.564425 29.1255C0.433524 28.9946 0.359985 28.817 0.359985 28.6319C0.359985 28.4468 0.433524 28.2692 0.564425 28.1383C0.695325 28.0074 0.872864 27.9339 1.05799 27.9339H10.835C11.0201 27.9339 11.1976 28.0074 11.3285 28.1383C11.4594 28.2692 11.533 28.4468 11.533 28.6319C11.533 28.817 11.4594 28.9946 11.3285 29.1255C11.1976 29.2564 11.0201 29.3299 10.835 29.3299Z" fill="#008DFF"/>
</g>
<defs>
<clipPath id="clip0_84_248">
<rect width="44" height="40" fill="white" transform="translate(0.359985)"/>
</clipPath>
</defs>
</svg>
